<svg version="1.1" xmlns="http://www.w3.org/2000/svg" viewBox="0 0 700 600" width="700" height="600">
  <!-- svg-source:excalidraw -->
  
  <defs>
    <style class="style-fonts">
      
    </style>
    
  </defs>
  <g transform="translate(339.61346184354625 288.04152283687336) rotate(0 -141.89238430838395 -79.4570167978502)" stroke="none"><path fill="#593a0e" d="M -2.92,10.20 Q -2.92,10.20 -4.69,6.97 -6.46,3.73 -8.73,-0.14 -11.00,-4.02 -13.17,-8.11 -15.35,-12.19 -17.63,-16.95 -19.91,-21.71 -21.95,-25.94 -23.99,-30.16 -26.29,-34.94 -28.59,-39.73 -31.42,-44.75 -34.25,-49.77 -37.29,-54.93 -40.34,-60.10 -43.61,-65.26 -46.88,-70.41 -50.92,-76.53 -54.97,-82.64 -59.28,-88.08 -63.60,-93.52 -68.23,-99.60 -72.86,-105.68 -77.42,-111.38 -81.98,-117.08 -86.43,-121.64 -90.88,-126.19 -95.05,-130.50 -99.21,-134.80 -103.80,-139.52 -108.38,-144.23 -112.53,-148.14 -116.68,-152.06 -121.87,-157.09 -127.07,-162.13 -131.97,-166.56 -136.88,-170.99 -140.90,-174.46 -144.92,-177.93 -150.16,-182.28 -155.39,-186.63 -158.83,-189.22 -162.27,-191.81 -166.92,-195.35 -171.57,-198.89 -176.94,-202.56 -182.31,-206.23 -187.23,-208.88 -192.15,-211.54 -197.31,-214.01 -202.47,-216.48 -206.98,-217.96 -211.50,-219.43 -215.90,-220.52 -220.30,-221.60 -225.94,-222.02 -231.58,-222.43 -236.47,-222.23 -241.37,-222.03 -245.98,-221.51 -250.60,-220.99 -254.98,-219.72 -259.36,-218.45 -263.30,-216.09 -267.23,-213.74 -269.70,-209.86 -272.17,-205.99 -273.38,-201.40 -274.58,-196.80 -275.04,-191.40 -275.51,-185.99 -275.46,-179.64 -275.41,-173.29 -275.22,-167.73 -275.04,-162.17 -274.98,-155.60 -274.93,-149.02 -274.63,-143.53 -274.32,-138.05 -274.08,-132.97 -273.83,-127.89 -273.37,-121.51 -272.90,-115.13 -272.48,-110.12 -272.06,-105.12 -271.21,-99.01 -270.36,-92.91 -269.22,-85.99 -268.08,-79.07 -267.13,-73.43 -266.18,-67.79 -264.70,-60.58 -263.23,-53.36 -261.85,-48.48 -260.47,-43.60 -258.48,-37.08 -256.49,-30.57 -254.25,-23.81 -252.00,-17.06 -249.32,-10.76 -246.64,-4.47 -243.53,0.87 -240.42,6.22 -236.69,11.57 -232.97,16.92 -228.84,21.77 -224.71,26.63 -219.82,31.21 -214.94,35.79 -209.11,40.49 -203.27,45.19 -197.26,49.28 -191.25,53.37 -185.38,56.36 -179.51,59.34 -173.39,61.17 -167.26,63.00 -161.25,63.61 -155.24,64.23 -150.77,64.01 -146.31,63.80 -139.82,62.81 -133.32,61.82 -126.21,60.23 -119.09,58.64 -114.35,57.45 -109.61,56.27 -107.49,56.13 -105.37,56.00 -103.32,56.55 -101.27,57.10 -99.50,58.28 -97.73,59.46 -96.43,61.14 -95.13,62.82 -94.43,64.83 -93.74,66.84 -93.72,68.96 -93.70,71.09 -94.36,73.11 -95.02,75.13 -96.30,76.83 -97.57,78.53 -99.32,79.74 -101.07,80.95 -103.11,81.53 -105.15,82.12 -107.27,82.02 -109.40,81.92 -111.38,81.15 -113.36,80.38 -114.99,79.02 -116.62,77.66 -117.73,75.84 -118.84,74.03 -119.32,71.96 -119.79,69.89 -119.58,67.78 -119.37,65.66 -118.49,63.72 -117.61,61.79 -116.16,60.23 -114.72,58.68 -112.85,57.67 -110.98,56.66 -108.88,56.30 -106.79,55.93 -104.69,56.26 -102.59,56.59 -100.70,57.57 -98.82,58.55 -97.34,60.08 -95.87,61.61 -94.96,63.53 -94.05,65.45 -93.81,67.56 -93.56,69.67 -94.00,71.75 -94.44,73.83 -95.52,75.66 -96.60,77.49 -98.21,78.88 -99.82,80.27 -101.78,81.07 -103.75,81.88 -103.75,81.87 -103.75,81.87 -105.77,82.28 -107.79,82.68 -113.59,83.97 -119.40,85.25 -123.78,86.32 -128.17,87.39 -136.44,88.73 -144.71,90.07 -150.78,90.12 -156.84,90.17 -165.06,89.26 -173.29,88.35 -179.12,86.54 -184.95,84.72 -191.34,81.79 -197.73,78.86 -201.47,76.78 -205.22,74.70 -211.98,70.16 -218.74,65.62 -225.41,60.41 -232.09,55.21 -238.13,49.58 -244.17,43.95 -249.26,37.95 -254.34,31.96 -258.54,25.92 -262.73,19.88 -266.72,12.94 -270.71,6.00 -273.76,-0.99 -276.81,-7.99 -279.42,-15.38 -282.03,-22.77 -284.15,-29.40 -286.27,-36.04 -287.71,-41.54 -289.15,-47.04 -291.03,-54.95 -292.90,-62.86 -293.91,-68.75 -294.92,-74.65 -296.21,-81.39 -297.49,-88.14 -298.69,-95.55 -299.89,-102.96 -300.25,-107.70 -300.62,-112.44 -301.30,-119.29 -301.98,-126.14 -302.24,-131.15 -302.51,-136.15 -302.93,-142.15 -303.36,-148.15 -303.62,-154.51 -303.88,-160.87 -304.20,-166.50 -304.51,-172.13 -304.70,-177.51 -304.89,-182.89 -304.66,-187.79 -304.44,-192.70 -303.92,-197.58 -303.41,-202.46 -302.24,-207.24 -301.08,-212.02 -299.02,-216.85 -296.97,-221.68 -293.46,-226.62 -289.94,-231.55 -285.97,-235.18 -282.00,-238.81 -277.24,-241.50 -272.47,-244.20 -266.85,-246.02 -261.22,-247.85 -256.30,-248.66 -251.38,-249.47 -245.95,-249.87 -240.52,-250.26 -235.06,-250.15 -229.60,-250.04 -223.89,-249.38 -218.17,-248.73 -213.45,-247.66 -208.72,-246.59 -203.20,-244.89 -197.69,-243.19 -191.61,-240.63 -185.52,-238.07 -179.63,-235.03 -173.74,-231.99 -167.72,-228.24 -161.70,-224.48 -155.99,-220.46 -150.27,-216.44 -146.47,-213.33 -142.67,-210.23 -137.90,-206.30 -133.13,-202.37 -127.97,-197.98 -122.82,-193.58 -119.02,-190.02 -115.22,-186.46 -109.25,-181.02 -103.29,-175.58 -99.08,-171.45 -94.87,-167.32 -90.37,-162.78 -85.87,-158.23 -80.75,-152.96 -75.63,-147.69 -72.08,-143.85 -68.53,-140.00 -62.79,-133.70 -57.05,-127.40 -52.41,-121.43 -47.78,-115.46 -43.22,-109.75 -38.66,-104.03 -33.77,-97.46 -28.88,-90.88 -24.95,-84.88 -21.02,-78.89 -17.76,-73.38 -14.50,-67.87 -11.49,-62.43 -8.47,-56.99 -5.58,-51.18 -2.70,-45.37 -0.74,-40.59 1.21,-35.82 3.22,-30.38 5.22,-24.95 7.40,-19.51 9.58,-14.07 11.30,-10.04 13.03,-6.00 14.55,-2.65 16.08,0.70 16.51,1.91 16.94,3.11 17.07,4.39 17.20,5.66 17.02,6.93 16.84,8.20 16.36,9.39 15.88,10.58 15.13,11.62 14.39,12.66 13.41,13.49 12.44,14.32 11.29,14.89 10.14,15.46 8.89,15.74 7.64,16.03 6.36,16.00 5.08,15.98 3.84,15.64 2.61,15.31 1.48,14.70 0.36,14.08 -0.57,13.21 -1.51,12.34 -2.22,11.27 -2.92,10.20 -2.92,10.20 L -2.92,10.20 Z"></path></g><g transform="translate(230.19317782081635 363.1392564048929) rotate(0 5.306022431933343 97.196683639507)" stroke="none"><path fill="#593a0e" d="M 1.20,10.05 Q 1.20,10.05 -1.13,10.51 -3.47,10.98 -7.63,12.16 -11.79,13.35 -16.74,15.44 -21.70,17.53 -26.19,19.40 -30.68,21.26 -35.95,23.71 -41.23,26.16 -46.69,28.77 -52.15,31.38 -56.12,33.57 -60.10,35.76 -63.95,37.86 -67.79,39.96 -71.62,43.57 -75.46,47.17 -78.76,51.02 -82.07,54.87 -84.42,58.76 -86.77,62.66 -87.98,66.79 -89.19,70.93 -89.40,75.81 -89.61,80.70 -88.99,85.82 -88.38,90.93 -87.02,97.02 -85.67,103.11 -83.65,108.37 -81.63,113.63 -79.32,117.99 -77.01,122.35 -72.88,127.69 -68.76,133.04 -65.47,136.83 -62.18,140.62 -57.41,144.97 -52.65,149.32 -48.74,152.38 -44.83,155.44 -41.03,158.18 -37.23,160.93 -32.15,163.68 -27.07,166.42 -23.14,168.33 -19.22,170.24 -15.06,172.62 -10.90,174.99 -6.45,176.61 -2.01,178.24 2.37,179.02 6.77,179.79 11.98,179.77 17.20,179.75 22.36,178.40 27.51,177.05 31.61,175.46 35.71,173.87 40.02,171.69 44.33,169.50 48.33,166.44 52.32,163.38 56.00,159.60 59.68,155.83 63.21,150.91 66.73,145.99 69.48,141.97 72.23,137.96 74.89,133.78 77.54,129.60 79.79,125.35 82.03,121.10 84.41,116.34 86.79,111.59 89.01,106.37 91.22,101.14 93.09,95.76 94.96,90.38 96.31,86.25 97.65,82.11 100.08,75.69 102.50,69.26 103.75,67.29 105.00,65.32 106.81,63.85 108.63,62.38 110.81,61.57 113.00,60.76 115.33,60.69 117.66,60.62 119.90,61.30 122.13,61.98 124.03,63.33 125.93,64.69 127.29,66.58 128.66,68.47 129.35,70.69 130.04,72.92 129.99,75.25 129.93,77.59 129.13,79.78 128.34,81.97 126.88,83.79 125.42,85.62 123.46,86.88 121.50,88.14 119.24,88.71 116.98,89.28 114.65,89.10 112.33,88.91 110.18,88.00 108.03,87.08 106.29,85.53 104.55,83.98 103.40,81.95 102.24,79.92 101.80,77.64 101.35,75.35 101.66,73.03 101.97,70.72 103.00,68.63 104.03,66.54 105.67,64.88 107.32,63.23 109.40,62.18 111.49,61.14 113.80,60.82 116.11,60.50 118.40,60.93 120.70,61.36 122.73,62.51 124.76,63.65 126.33,65.38 127.89,67.11 128.82,69.25 129.74,71.39 129.94,73.72 130.14,76.04 129.58,78.31 129.02,80.57 129.02,80.57 129.03,80.57 127.49,84.24 125.96,87.90 124.05,93.64 122.14,99.38 120.16,105.54 118.19,111.70 116.45,115.98 114.71,120.26 112.60,124.95 110.48,129.64 107.60,135.06 104.73,140.48 102.12,145.10 99.52,149.71 96.72,154.03 93.92,158.35 91.01,162.80 88.10,167.25 85.00,171.52 81.90,175.78 77.44,180.44 72.98,185.10 69.21,188.34 65.45,191.58 60.86,194.24 56.28,196.90 51.63,199.20 46.98,201.50 42.81,203.01 38.63,204.52 34.02,205.88 29.42,207.24 23.31,208.13 17.19,209.02 12.83,208.94 8.46,208.86 3.59,208.27 -1.27,207.68 -5.93,206.73 -10.58,205.78 -15.48,204.03 -20.37,202.28 -26.18,199.16 -31.99,196.04 -36.18,194.00 -40.38,191.95 -44.55,189.73 -48.71,187.51 -53.31,184.59 -57.92,181.66 -62.31,178.45 -66.71,175.24 -71.17,171.68 -75.63,168.11 -79.67,164.30 -83.72,160.48 -87.77,155.77 -91.83,151.06 -95.26,146.76 -98.70,142.45 -102.59,136.36 -106.48,130.28 -108.67,125.60 -110.86,120.93 -112.69,115.69 -114.52,110.45 -115.71,105.80 -116.89,101.14 -117.63,96.61 -118.37,92.07 -119.04,86.26 -119.70,80.44 -119.35,74.47 -119.00,68.49 -118.17,64.04 -117.35,59.59 -115.26,54.57 -113.18,49.55 -110.87,45.59 -108.55,41.63 -104.81,37.01 -101.08,32.38 -98.02,29.09 -94.96,25.81 -90.57,22.10 -86.18,18.38 -82.23,16.01 -78.28,13.64 -74.16,11.62 -70.04,9.60 -65.34,7.57 -60.64,5.54 -55.92,3.56 -51.21,1.57 -47.07,-0.03 -42.93,-1.63 -38.86,-2.88 -34.80,-4.12 -29.38,-5.73 -23.97,-7.33 -19.41,-8.37 -14.86,-9.40 -10.41,-9.62 -5.95,-9.85 -3.58,-9.95 -1.20,-10.05 0.01,-10.04 1.24,-10.04 2.42,-9.75 3.60,-9.45 4.68,-8.88 5.76,-8.31 6.67,-7.50 7.59,-6.69 8.28,-5.69 8.97,-4.68 9.40,-3.54 9.83,-2.40 9.97,-1.19 10.12,0.02 9.97,1.23 9.82,2.44 9.38,3.58 8.95,4.72 8.25,5.72 7.56,6.72 6.64,7.53 5.73,8.34 4.65,8.90 3.57,9.47 2.38,9.76 1.19,10.05 1.19,10.05 L 1.20,10.05 Z"></path></g><g transform="translate(351.09115885603387 283.1402931423754) rotate(0 149.96475280066807 17.447892837368727)" stroke="none"><path fill="#593a0e" d="M -9.38,-4.91 Q -9.38,-4.91 -8.18,-7.55 -6.98,-10.19 -5.08,-15.02 -3.17,-19.84 -1.31,-24.78 0.54,-29.73 2.66,-34.14 4.77,-38.56 6.68,-42.48 8.59,-46.40 11.17,-51.90 13.75,-57.39 16.03,-61.50 18.30,-65.62 21.67,-71.62 25.03,-77.63 27.28,-81.44 29.52,-85.26 31.97,-89.17 34.41,-93.08 37.40,-97.16 40.39,-101.24 44.09,-105.86 47.79,-110.48 51.27,-114.84 54.74,-119.20 58.25,-123.19 61.77,-127.18 65.82,-131.80 69.88,-136.41 73.09,-139.64 76.30,-142.87 80.92,-147.23 85.53,-151.59 89.15,-154.87 92.77,-158.16 95.93,-161.20 99.10,-164.24 102.51,-167.50 105.93,-170.76 109.04,-173.67 112.15,-176.58 116.02,-180.28 119.89,-183.97 124.20,-187.54 128.50,-191.11 132.74,-194.65 136.98,-198.19 140.35,-200.80 143.72,-203.41 147.73,-206.38 151.73,-209.36 156.18,-212.72 160.62,-216.08 165.01,-218.69 169.39,-221.30 173.01,-223.66 176.64,-226.01 181.01,-228.76 185.37,-231.50 190.40,-234.00 195.43,-236.51 199.73,-238.75 204.03,-240.99 208.96,-243.53 213.89,-246.08 218.39,-247.79 222.90,-249.51 227.69,-250.18 232.49,-250.85 236.90,-250.90 241.30,-250.96 247.38,-250.82 253.46,-250.69 259.01,-249.37 264.56,-248.05 268.73,-246.18 272.91,-244.32 276.82,-242.10 280.72,-239.88 284.49,-236.90 288.26,-233.91 291.50,-229.99 294.73,-226.07 297.71,-221.57 300.69,-217.06 303.05,-212.34 305.40,-207.61 307.28,-203.10 309.15,-198.59 310.32,-194.38 311.49,-190.18 312.45,-184.96 313.41,-179.74 314.00,-175.47 314.58,-171.21 314.89,-166.92 315.20,-162.63 315.32,-157.99 315.43,-153.35 315.29,-149.03 315.14,-144.71 314.75,-139.92 314.36,-135.13 314.13,-129.48 313.89,-123.82 313.47,-118.62 313.05,-113.42 312.47,-107.98 311.90,-102.55 311.30,-98.05 310.71,-93.55 309.91,-88.96 309.11,-84.38 307.87,-78.73 306.63,-73.09 305.66,-68.86 304.70,-64.64 303.68,-60.47 302.66,-56.31 301.40,-51.43 300.15,-46.55 298.45,-41.72 296.76,-36.88 294.76,-31.80 292.75,-26.72 290.29,-21.69 287.83,-16.67 285.35,-12.45 282.87,-8.24 280.59,-4.18 278.31,-0.12 275.52,3.78 272.74,7.69 269.68,11.81 266.62,15.92 263.96,19.44 261.30,22.96 258.09,26.23 254.88,29.50 251.82,32.51 248.77,35.52 245.38,38.41 241.99,41.30 238.16,43.88 234.34,46.46 230.29,49.37 226.23,52.28 222.12,54.95 218.00,57.63 213.83,59.83 209.66,62.03 205.40,64.27 201.14,66.51 196.12,68.92 191.10,71.33 186.78,72.79 182.47,74.25 178.31,75.33 174.15,76.41 169.93,77.52 165.71,78.62 160.10,79.98 154.50,81.34 149.49,82.77 144.48,84.21 139.77,85.29 135.06,86.38 131.09,86.60 127.12,86.83 125.27,86.60 123.41,86.38 121.67,85.72 119.92,85.06 118.38,84.00 116.85,82.94 115.61,81.55 114.37,80.15 113.50,78.50 112.63,76.84 112.18,75.03 111.73,73.22 111.73,71.35 111.73,69.48 112.17,67.67 112.62,65.86 113.48,64.20 114.35,62.55 115.59,61.15 116.82,59.75 118.36,58.69 119.90,57.63 121.64,56.96 123.39,56.30 125.24,56.07 127.09,55.85 134.65,61.88 142.21,67.91 138.58,63.28 134.95,58.66 140.08,59.99 145.21,61.32 150.95,62.96 156.70,64.59 161.64,66.82 166.58,69.04 171.40,71.64 176.21,74.23 181.08,76.68 185.95,79.12 190.93,82.34 195.92,85.55 199.81,88.59 203.69,91.63 208.26,95.76 212.83,99.89 215.52,103.34 218.21,106.79 221.30,111.13 224.39,115.47 226.21,119.61 228.03,123.75 229.35,128.54 230.67,133.33 231.67,138.22 232.66,143.10 233.48,147.92 234.30,152.73 234.40,157.35 234.49,161.98 233.90,166.92 233.32,171.86 232.31,176.25 231.30,180.64 229.58,185.04 227.86,189.45 225.79,193.85 223.72,198.26 221.28,202.87 218.83,207.48 215.58,212.16 212.33,216.84 209.20,220.49 206.06,224.14 202.87,227.94 199.68,231.73 196.35,235.34 193.02,238.95 189.19,242.96 185.36,246.98 181.67,250.66 177.99,254.35 174.21,257.84 170.44,261.33 166.87,263.91 163.30,266.50 159.12,269.15 154.95,271.81 151.01,273.84 147.07,275.87 142.99,277.90 138.92,279.93 133.41,281.71 127.90,283.48 123.55,284.44 119.20,285.39 114.12,285.62 109.03,285.85 103.76,285.07 98.49,284.30 93.50,283.15 88.52,282.00 84.44,280.40 80.37,278.80 76.47,276.94 72.56,275.09 67.17,272.46 61.78,269.83 57.36,266.80 52.94,263.77 49.24,261.03 45.53,258.30 40.85,254.13 36.16,249.97 32.88,246.62 29.60,243.27 25.77,238.82 21.93,234.38 18.58,229.72 15.24,225.06 12.28,219.73 9.31,214.41 6.79,209.30 4.26,204.20 2.00,198.07 -0.25,191.93 -1.82,186.76 -3.39,181.59 -4.81,176.69 -6.23,171.78 -6.64,169.37 -7.05,166.96 -6.89,164.62 -6.74,162.28 -5.85,160.11 -4.95,157.93 -3.41,156.16 -1.87,154.39 0.14,153.20 2.17,152.02 4.47,151.54 6.77,151.06 9.10,151.34 11.43,151.62 13.55,152.63 15.67,153.64 17.35,155.27 19.04,156.91 20.11,158.99 21.19,161.08 21.54,163.40 21.90,165.72 21.49,168.03 21.08,170.35 19.96,172.41 18.84,174.47 17.11,176.06 15.39,177.66 13.25,178.62 11.11,179.58 8.77,179.81 6.43,180.04 4.15,179.50 1.86,178.97 -0.13,177.74 -2.12,176.51 -3.62,174.70 -5.12,172.89 -5.97,170.70 -6.81,168.51 -6.91,166.17 -7.01,163.82 -6.36,161.57 -5.70,159.31 -4.36,157.38 -3.02,155.46 -1.14,154.06 0.74,152.66 2.97,151.93 5.20,151.21 7.55,151.24 9.90,151.26 12.12,152.04 14.33,152.82 16.18,154.26 18.04,155.70 19.33,157.66 20.63,159.62 21.23,161.89 21.83,164.15 21.83,164.15 21.83,164.15 22.21,165.96 22.60,167.78 23.99,172.78 25.39,177.77 26.97,182.47 28.56,187.17 30.57,191.54 32.58,195.91 34.97,200.23 37.36,204.55 40.97,209.83 44.57,215.10 47.44,218.33 50.31,221.55 53.63,224.78 56.95,228.02 61.53,231.86 66.12,235.70 69.72,238.41 73.33,241.12 77.16,243.26 80.99,245.40 85.39,247.48 89.78,249.56 94.45,251.41 99.12,253.26 103.88,254.31 108.64,255.36 113.09,255.09 117.55,254.81 122.45,253.23 127.35,251.64 131.73,249.39 136.11,247.13 140.68,244.42 145.25,241.72 149.17,238.83 153.10,235.94 156.77,232.25 160.44,228.55 163.57,225.48 166.71,222.40 169.90,218.84 173.09,215.28 176.90,211.02 180.72,206.75 184.23,202.64 187.75,198.52 190.58,194.24 193.41,189.96 195.81,184.86 198.21,179.76 200.17,174.92 202.13,170.07 202.83,165.22 203.53,160.37 203.18,155.94 202.84,151.51 201.86,146.63 200.88,141.75 199.78,137.64 198.69,133.54 196.20,129.57 193.72,125.60 190.46,121.87 187.20,118.14 183.68,115.43 180.17,112.72 175.78,109.58 171.39,106.43 166.70,104.01 162.01,101.60 157.45,99.18 152.89,96.77 148.93,94.89 144.97,93.02 139.40,91.52 133.83,90.02 127.63,88.29 121.43,86.56 116.77,80.89 112.11,75.22 119.62,81.02 127.12,86.83 125.27,86.61 123.42,86.38 121.67,85.72 119.92,85.06 118.39,84.00 116.85,82.94 115.61,81.55 114.37,80.15 113.50,78.50 112.63,76.85 112.18,75.03 111.73,73.22 111.73,71.35 111.73,69.49 112.17,67.67 112.62,65.86 113.48,64.20 114.35,62.55 115.59,61.15 116.82,59.75 118.36,58.69 119.89,57.63 121.64,56.96 123.39,56.30 125.24,56.07 127.09,55.85 127.29,55.85 127.49,55.85 131.74,55.22 136.00,54.58 140.28,53.36 144.56,52.14 150.08,50.68 155.59,49.23 159.98,48.14 164.37,47.05 169.54,45.71 174.71,44.37 179.60,42.33 184.49,40.30 188.31,38.36 192.14,36.43 196.50,34.27 200.86,32.10 204.88,29.48 208.91,26.85 213.22,23.74 217.52,20.63 221.59,17.71 225.67,14.79 228.73,11.84 231.79,8.88 235.27,5.35 238.75,1.82 241.51,-1.99 244.26,-5.81 247.60,-9.98 250.93,-14.15 253.13,-18.24 255.32,-22.32 257.98,-26.75 260.65,-31.18 262.66,-35.29 264.68,-39.40 266.46,-43.74 268.23,-48.08 270.10,-53.84 271.97,-59.60 273.16,-64.16 274.36,-68.72 275.22,-72.94 276.08,-77.16 277.14,-81.55 278.20,-85.94 279.14,-90.14 280.08,-94.34 280.57,-98.77 281.05,-103.21 281.60,-108.26 282.14,-113.31 282.60,-118.36 283.05,-123.40 283.24,-129.06 283.42,-134.73 283.84,-140.94 284.26,-147.15 284.32,-151.55 284.39,-155.94 284.19,-160.92 283.98,-165.91 283.40,-170.21 282.81,-174.52 281.94,-179.29 281.07,-184.07 279.47,-188.66 277.87,-193.24 275.65,-197.74 273.44,-202.23 270.51,-206.99 267.59,-211.74 262.42,-214.96 257.25,-218.19 252.75,-219.32 248.25,-220.46 243.45,-220.50 238.66,-220.54 233.86,-220.40 229.07,-220.27 224.88,-218.22 220.70,-216.16 216.38,-213.87 212.05,-211.57 207.44,-209.33 202.83,-207.10 198.15,-204.32 193.47,-201.54 188.46,-198.34 183.45,-195.14 179.09,-192.58 174.74,-190.01 170.91,-187.14 167.08,-184.27 162.10,-180.53 157.12,-176.78 153.47,-173.87 149.81,-170.95 146.02,-167.87 142.22,-164.78 138.10,-161.06 133.97,-157.35 129.79,-153.44 125.61,-149.54 122.48,-146.54 119.36,-143.54 115.79,-140.06 112.21,-136.59 109.06,-133.69 105.90,-130.80 102.57,-127.56 99.24,-124.33 95.49,-120.75 91.74,-117.16 87.77,-112.65 83.79,-108.14 80.19,-104.24 76.58,-100.33 73.05,-96.14 69.52,-91.94 66.70,-88.69 63.88,-85.45 60.51,-81.21 57.14,-76.98 53.96,-72.28 50.78,-67.57 48.46,-63.83 46.14,-60.09 43.77,-56.06 41.39,-52.03 38.42,-47.05 35.44,-42.07 32.35,-36.42 29.25,-30.77 26.07,-25.19 22.89,-19.61 20.48,-14.88 18.06,-10.16 15.21,-5.11 12.35,-0.06 10.87,2.42 9.38,4.91 8.66,5.96 7.93,7.01 6.98,7.86 6.02,8.71 4.89,9.30 3.76,9.90 2.52,10.20 1.28,10.51 0.01,10.51 -1.26,10.51 -2.50,10.21 -3.74,9.91 -4.87,9.31 -6.00,8.72 -6.96,7.87 -7.92,7.03 -8.64,5.98 -9.37,4.93 -9.83,3.73 -10.28,2.54 -10.43,1.27 -10.59,0.01 -10.44,-1.25 -10.28,-2.52 -9.83,-3.71 -9.38,-4.91 -9.38,-4.91 L -9.38,-4.91 Z"></path></g><g transform="translate(347.6258491112894 295.31794808018685) rotate(0 2.144183337765753 -7.787766847591911)" stroke="none"><path fill="#593a0e" d="M -8.88,-4.07 Q -8.88,-4.07 -8.77,-4.97 -8.65,-5.87 -5.83,-10.95 -3.01,-16.04 -4.22,-17.11 -5.43,-18.17 -4.49,-19.61 -3.55,-21.05 -2.20,-22.11 -0.85,-23.18 0.76,-23.76 2.38,-24.33 4.09,-24.37 5.81,-24.40 7.45,-23.88 9.09,-23.36 10.47,-22.34 11.86,-21.33 12.85,-19.92 13.84,-18.52 14.33,-16.87 14.82,-15.23 14.76,-13.51 14.70,-11.79 14.09,-10.18 13.48,-8.58 12.39,-7.25 11.30,-5.92 9.85,-5.00 8.39,-4.09 6.72,-3.69 5.05,-3.29 3.34,-3.45 1.63,-3.60 0.05,-4.30 -1.51,-4.99 -2.78,-6.15 -4.05,-7.31 -4.88,-8.81 -5.71,-10.31 -6.02,-12.00 -6.33,-13.70 -6.08,-15.40 -5.83,-17.10 -5.05,-18.63 -4.28,-20.16 -3.05,-21.37 -1.82,-22.57 -0.28,-23.32 1.26,-24.07 2.96,-24.28 4.67,-24.50 6.35,-24.16 8.04,-23.82 9.53,-22.96 11.01,-22.10 12.15,-20.81 13.28,-19.52 13.95,-17.94 14.61,-16.36 14.74,-14.64 14.86,-12.93 14.43,-11.26 14.00,-9.60 14.00,-9.60 14.00,-9.60 13.70,-9.28 13.39,-8.95 11.49,-4.96 9.58,-0.97 9.23,-0.13 8.88,0.70 8.47,1.73 8.05,2.76 7.41,3.66 6.76,4.56 5.91,5.27 5.06,5.99 4.07,6.49 3.08,6.98 2.00,7.23 0.91,7.47 -0.19,7.45 -1.29,7.42 -2.37,7.13 -3.44,6.85 -4.41,6.31 -5.38,5.78 -6.19,5.02 -7.01,4.27 -7.62,3.34 -8.23,2.42 -8.60,1.37 -8.98,0.33 -9.09,-0.77 -9.20,-1.87 -9.04,-2.97 -8.88,-4.07 -8.88,-4.07 L -8.88,-4.07 Z"></path></g><g transform="translate(362.5352503822396 447.32128588257) rotate(0 -9.165503793372409 -6.014861864401155)" stroke="none"><path fill="#593a0e" d="M -8.30,4.15 Q -8.30,4.15 -8.97,3.15 -9.64,2.14 -13.06,-0.47 -16.48,-3.09 -11.46,-6.55 -6.44,-10.00 -6.85,-8.12 -7.25,-6.24 -8.24,-4.58 -9.22,-2.93 -10.68,-1.68 -12.15,-0.42 -13.93,0.29 -15.72,1.01 -17.64,1.12 -19.56,1.23 -21.42,0.73 -23.27,0.22 -24.87,-0.84 -26.47,-1.92 -27.64,-3.44 -28.81,-4.97 -29.44,-6.79 -30.06,-8.62 -30.07,-10.54 -30.08,-12.47 -29.47,-14.29 -28.86,-16.12 -27.71,-17.66 -26.55,-19.20 -24.96,-20.28 -23.37,-21.37 -21.52,-21.89 -19.66,-22.42 -17.74,-22.32 -15.82,-22.22 -14.03,-21.52 -12.24,-20.82 -10.76,-19.58 -9.29,-18.34 -8.29,-16.69 -7.29,-15.05 -6.87,-13.17 -6.45,-11.29 -6.65,-9.37 -6.85,-7.46 -7.65,-5.71 -8.45,-3.96 -9.77,-2.55 -11.08,-1.15 -12.78,-0.24 -14.48,0.66 -16.38,0.98 -18.27,1.30 -20.18,0.99 -22.08,0.69 -23.78,-0.19 -25.49,-1.09 -26.82,-2.48 -28.15,-3.87 -28.96,-5.62 -29.78,-7.36 -29.99,-9.27 -30.21,-11.19 -30.21,-11.18 -30.21,-11.18 -21.65,-17.41 -13.10,-23.64 -9.11,-21.97 -5.12,-20.29 -1.64,-17.37 1.84,-14.45 4.67,-10.44 7.50,-6.43 7.90,-5.29 8.30,-4.15 8.68,-3.09 9.05,-2.04 9.17,-0.93 9.28,0.18 9.12,1.29 8.97,2.39 8.55,3.43 8.13,4.47 7.48,5.38 6.82,6.29 5.97,7.01 5.12,7.74 4.12,8.24 3.12,8.74 2.02,8.99 0.93,9.23 -0.18,9.21 -1.30,9.19 -2.38,8.90 -3.46,8.61 -4.44,8.07 -5.42,7.53 -6.24,6.77 -7.07,6.01 -7.68,5.08 -8.30,4.15 -8.30,4.15 L -8.30,4.15 Z"></path></g></svg>