<svg version="1.1" xmlns="http://www.w3.org/2000/svg" viewBox="0 0 920 820" width="920" height="820">
  <!-- svg-source:excalidraw -->
  
  <defs>
    <style class="style-fonts">
      
    </style>
    
  </defs>
  <g transform="translate(680.2491284954333 99.0329303916767) rotate(0 -69.37481730725631 191.48587005661201)" stroke="none"><path fill="#25591f" d="M 10.16,0.92 Q 10.16,0.92 10.07,3.89 9.98,6.86 9.09,13.78 8.20,20.71 6.45,26.76 4.69,32.82 3.49,38.20 2.28,43.57 0.93,48.05 -0.40,52.53 -3.77,58.48 -7.14,64.43 -9.14,69.17 -11.14,73.91 -13.37,77.89 -15.60,81.86 -18.19,85.95 -20.78,90.05 -22.82,94.38 -24.87,98.72 -27.33,102.34 -29.79,105.97 -32.58,110.21 -35.37,114.44 -38.73,118.08 -42.10,121.71 -45.22,125.11 -48.34,128.52 -53.32,133.50 -58.31,138.47 -57.63,139.05 -56.95,139.63 -58.28,140.87 -59.61,142.10 -61.20,142.99 -62.79,143.87 -64.55,144.34 -66.30,144.82 -68.12,144.86 -69.94,144.91 -71.71,144.51 -73.49,144.12 -75.12,143.31 -76.75,142.51 -78.13,141.33 -79.52,140.16 -80.59,138.69 -81.66,137.22 -82.34,135.53 -83.03,133.85 -83.29,132.05 -83.55,130.25 -83.37,128.44 -83.20,126.63 -82.59,124.92 -81.99,123.20 -80.99,121.68 -79.99,120.16 -71.16,118.14 -62.32,116.12 -57.77,115.63 -53.23,115.13 -48.65,115.09 -44.08,115.06 -33.14,118.09 -22.20,121.13 -20.57,127.35 -18.94,133.58 -19.77,138.04 -20.60,142.50 -21.56,147.14 -22.51,151.79 -23.59,155.90 -24.66,160.02 -25.77,165.44 -26.88,170.85 -29.46,175.98 -32.05,181.12 -33.74,185.61 -35.42,190.10 -37.20,195.14 -38.98,200.17 -41.33,204.75 -43.68,209.33 -46.81,213.35 -49.94,217.37 -52.45,221.52 -54.95,225.68 -57.63,229.29 -60.31,232.91 -62.97,236.78 -65.63,240.64 -68.73,243.63 -71.83,246.63 -74.73,250.46 -77.63,254.29 -81.43,258.59 -85.24,262.90 -89.18,266.22 -93.12,269.54 -93.34,261.40 -93.56,253.26 -97.09,250.05 -100.63,246.85 -96.10,246.84 -91.58,246.83 -86.39,246.59 -81.19,246.34 -76.85,246.31 -72.50,246.28 -67.08,246.45 -61.67,246.62 -56.64,249.83 -51.60,253.03 -49.26,257.39 -46.91,261.75 -47.23,266.17 -47.56,270.59 -50.52,276.83 -53.48,283.06 -54.62,288.69 -55.75,294.31 -58.55,299.26 -61.35,304.20 -64.29,309.26 -67.23,314.32 -70.24,318.42 -73.25,322.53 -76.60,327.00 -79.96,331.48 -85.13,336.69 -90.30,341.89 -92.59,346.41 -94.87,350.93 -99.34,356.35 -103.81,361.78 -107.08,365.92 -110.35,370.06 -113.23,373.54 -116.12,377.03 -119.22,381.64 -122.33,386.26 -126.21,379.29 -130.10,372.32 -126.59,369.48 -123.08,366.65 -118.76,367.11 -114.44,367.57 -109.51,367.61 -104.57,367.65 -104.35,367.67 -104.13,367.70 -101.83,366.77 -99.53,365.84 -97.06,365.70 -94.59,365.55 -92.20,366.20 -89.81,366.85 -87.76,368.23 -85.70,369.61 -84.19,371.58 -82.68,373.54 -81.88,375.88 -81.08,378.22 -81.07,380.70 -81.05,383.18 -81.83,385.53 -82.61,387.88 -84.10,389.86 -85.59,391.83 -87.63,393.23 -89.68,394.63 -92.06,395.31 -94.44,395.98 -96.92,395.86 -99.39,395.74 -101.69,394.83 -104.00,393.93 -105.89,392.33 -107.79,390.74 -109.07,388.62 -110.36,386.51 -110.91,384.09 -111.45,381.68 -111.19,379.21 -110.94,376.75 -109.91,374.50 -108.88,372.25 -107.19,370.44 -105.49,368.63 -103.31,367.46 -101.13,366.29 -98.68,365.88 -96.24,365.47 -93.80,365.86 -91.35,366.25 -89.16,367.40 -86.97,368.55 -85.25,370.34 -83.54,372.13 -82.49,374.37 -81.44,376.61 -81.16,379.07 -80.88,381.53 -81.40,383.95 -81.93,386.37 -83.19,388.50 -84.46,390.63 -86.34,392.24 -88.22,393.85 -88.22,393.85 -88.21,393.85 -91.64,395.51 -95.07,397.18 -102.22,397.72 -109.36,398.27 -113.93,398.17 -118.51,398.07 -122.94,398.11 -127.37,398.15 -132.20,398.15 -137.03,398.15 -141.36,395.67 -145.68,393.20 -147.88,384.25 -150.07,375.30 -147.58,370.29 -145.10,365.28 -142.21,361.74 -139.32,358.21 -136.30,354.77 -133.28,351.34 -128.95,346.14 -124.62,340.93 -119.59,334.99 -114.57,329.06 -112.87,325.09 -111.17,321.12 -107.35,316.39 -103.52,311.66 -99.97,307.21 -96.42,302.75 -92.95,296.91 -89.47,291.06 -86.69,286.58 -83.90,282.11 -82.03,276.29 -80.16,270.46 -78.77,266.21 -77.38,261.96 -75.41,266.52 -73.43,271.07 -69.39,274.17 -65.34,277.27 -69.93,277.26 -74.51,277.25 -79.47,277.45 -84.43,277.65 -89.08,277.68 -93.72,277.70 -98.47,277.63 -103.22,277.56 -108.36,274.06 -113.49,270.56 -114.75,261.85 -116.01,253.15 -112.94,248.85 -109.88,244.55 -106.47,240.66 -103.06,236.78 -98.18,231.57 -93.29,226.36 -90.74,222.93 -88.18,219.49 -85.06,214.66 -81.93,209.83 -78.50,207.31 -75.07,204.78 -73.17,200.42 -71.27,196.05 -68.16,189.76 -65.05,183.48 -63.60,179.10 -62.16,174.73 -60.23,170.41 -58.31,166.08 -56.33,159.84 -54.35,153.59 -53.22,149.36 -52.08,145.13 -49.60,140.10 -47.12,135.07 -37.06,138.09 -27.00,141.11 -31.20,142.41 -35.39,143.71 -40.90,144.69 -46.41,145.66 -50.99,145.62 -55.57,145.58 -60.17,145.53 -64.77,145.47 -69.01,144.84 -73.25,144.21 -65.10,141.92 -56.95,139.63 -58.28,140.86 -59.61,142.10 -61.20,142.98 -62.79,143.87 -64.55,144.34 -66.30,144.82 -68.12,144.86 -69.94,144.91 -71.71,144.51 -73.49,144.12 -75.11,143.31 -76.74,142.51 -78.13,141.33 -79.52,140.16 -80.59,138.69 -81.66,137.22 -82.34,135.53 -83.03,133.85 -83.29,132.05 -83.55,130.25 -83.37,128.44 -83.20,126.63 -82.59,124.92 -81.99,123.20 -80.99,121.68 -79.99,120.16 -76.65,117.36 -73.30,114.55 -70.05,110.16 -66.79,105.76 -64.15,102.39 -61.52,99.03 -58.31,95.06 -55.09,91.10 -52.30,87.26 -49.50,83.42 -47.09,79.22 -44.67,75.01 -42.48,71.27 -40.29,67.52 -38.01,63.70 -35.74,59.88 -33.02,55.67 -30.30,51.45 -27.51,46.70 -24.73,41.96 -22.68,37.66 -20.63,33.37 -18.29,27.68 -15.95,21.99 -14.55,17.95 -13.15,13.91 -12.10,9.38 -11.05,4.85 -10.61,1.96 -10.16,-0.92 -9.90,-2.12 -9.64,-3.33 -9.11,-4.43 -8.57,-5.54 -7.78,-6.48 -6.99,-7.43 -6.00,-8.16 -5.01,-8.89 -3.87,-9.36 -2.73,-9.83 -1.52,-10.01 -0.30,-10.20 0.92,-10.09 2.14,-9.98 3.30,-9.57 4.47,-9.17 5.50,-8.50 6.53,-7.84 7.38,-6.94 8.22,-6.04 8.82,-4.97 9.43,-3.90 9.76,-2.71 10.09,-1.53 10.12,-0.30 10.16,0.92 10.16,0.92 L 10.16,0.92 Z"></path></g><g transform="translate(679.7850828947155 96.48657573666856) rotate(0 57.541654488962024 195.30540203912426)" stroke="none"><path fill="#25591f" d="M 9.54,-3.86 Q 9.54,-3.86 10.77,-1.29 12.01,1.27 13.77,6.17 15.53,11.08 16.92,15.18 18.31,19.29 20.21,23.47 22.10,27.66 23.76,32.06 25.43,36.46 27.81,40.09 30.19,43.72 32.67,49.00 35.14,54.29 38.08,59.12 41.01,63.96 43.78,68.93 46.54,73.91 50.27,80.29 53.99,86.67 56.74,90.30 59.48,93.93 61.95,98.27 64.43,102.61 68.25,106.66 72.07,110.72 76.44,115.43 80.81,120.14 82.55,121.93 84.28,123.73 84.78,125.49 85.28,127.25 85.35,129.08 85.41,130.90 85.04,132.69 84.66,134.48 83.87,136.13 83.08,137.78 81.92,139.19 80.76,140.60 79.29,141.69 77.82,142.78 76.14,143.49 74.45,144.20 72.65,144.49 70.84,144.77 69.02,144.62 67.20,144.46 65.47,143.87 63.73,143.29 62.19,142.30 60.65,141.32 59.39,139.99 58.13,138.67 57.23,137.08 56.32,135.50 69.22,136.73 82.12,137.97 77.46,142.17 72.81,146.37 67.74,148.44 62.67,150.51 57.36,151.15 52.05,151.78 47.26,151.68 42.46,151.57 46.75,145.87 51.05,140.16 51.14,144.90 51.23,149.64 51.90,154.20 52.58,158.76 53.15,162.98 53.72,167.21 55.01,172.87 56.30,178.54 58.12,183.78 59.94,189.02 61.43,193.05 62.93,197.07 64.71,201.02 66.50,204.97 68.58,209.08 70.67,213.19 73.67,219.74 76.67,226.30 79.56,230.37 82.44,234.44 85.17,239.30 87.89,244.16 92.24,247.76 96.59,251.35 96.67,265.31 96.76,279.28 93.04,281.48 89.33,283.68 84.55,283.81 79.78,283.95 75.21,284.47 70.64,284.99 65.92,285.00 61.21,285.01 56.77,284.72 52.34,284.42 45.49,280.76 38.65,277.10 45.20,277.75 51.76,278.40 56.64,274.20 61.53,270.01 62.14,274.22 62.75,278.43 65.10,283.61 67.44,288.78 69.52,294.72 71.60,300.65 74.26,306.26 76.91,311.87 79.23,316.05 81.56,320.23 84.98,325.33 88.40,330.43 91.74,335.20 95.08,339.97 97.31,344.31 99.55,348.65 102.72,353.12 105.90,357.60 108.86,361.62 111.82,365.64 115.72,369.98 119.63,374.32 119.83,373.63 120.03,372.95 121.69,373.82 123.34,374.68 124.75,375.92 126.15,377.15 127.21,378.69 128.28,380.22 128.95,381.97 129.61,383.71 129.84,385.56 130.07,387.42 129.85,389.27 129.63,391.13 128.98,392.88 128.32,394.63 127.26,396.17 126.20,397.71 124.81,398.95 123.41,400.19 121.76,401.06 120.11,401.94 118.30,402.39 116.48,402.84 114.62,402.85 112.75,402.85 110.93,402.41 109.12,401.97 115.24,401.17 121.37,400.37 116.53,402.34 111.68,404.31 107.27,404.47 102.85,404.62 97.37,405.06 91.88,405.49 87.88,404.06 83.87,402.62 79.73,403.91 75.58,405.20 69.26,403.83 62.94,402.45 62.05,403.07 61.15,403.69 58.66,403.28 56.16,402.87 53.93,401.68 51.70,400.49 49.96,398.65 48.23,396.81 47.17,394.51 46.11,392.22 45.84,389.70 45.57,387.19 46.12,384.72 46.67,382.25 47.98,380.08 49.28,377.92 51.21,376.28 53.14,374.65 55.50,373.72 57.85,372.79 60.37,372.66 62.90,372.52 65.33,373.20 67.77,373.89 69.86,375.31 71.95,376.73 73.48,378.75 75.00,380.76 75.81,383.16 76.61,385.56 76.61,388.09 76.60,390.62 75.79,393.01 74.98,395.41 73.44,397.42 71.91,399.43 69.81,400.84 67.72,402.26 65.28,402.93 62.84,403.60 60.31,403.46 57.79,403.32 55.44,402.38 53.09,401.44 51.17,399.80 49.24,398.16 47.95,395.99 46.65,393.82 46.11,391.35 45.57,388.88 45.85,386.36 46.13,383.85 47.19,381.55 48.26,379.26 50.00,377.43 51.74,375.60 53.98,374.42 56.22,373.24 58.71,372.83 61.21,372.43 61.21,372.43 61.21,372.43 63.46,372.44 65.71,372.46 69.99,373.22 74.28,373.97 78.71,373.98 83.14,373.99 87.70,374.06 92.26,374.14 97.10,375.77 101.93,377.40 96.26,377.12 90.59,376.83 96.26,376.65 101.93,376.47 105.98,374.70 110.04,372.93 115.03,372.94 120.03,372.95 121.69,373.82 123.34,374.68 124.74,375.92 126.15,377.15 127.21,378.68 128.28,380.22 128.94,381.96 129.61,383.71 129.84,385.56 130.07,387.42 129.85,389.27 129.63,391.13 128.98,392.88 128.32,394.62 127.26,396.17 126.20,397.71 124.81,398.95 123.41,400.19 121.76,401.06 120.11,401.94 118.30,402.39 116.49,402.84 114.62,402.85 112.75,402.85 110.93,402.41 109.12,401.97 107.43,401.14 105.74,400.32 101.46,396.68 97.17,393.03 92.11,388.84 87.04,384.65 84.48,381.17 81.93,377.69 79.20,373.20 76.48,368.70 74.52,364.19 72.57,359.68 69.14,355.31 65.71,350.94 63.22,347.47 60.73,344.00 58.49,338.78 56.25,333.57 52.05,328.25 47.86,322.93 45.60,317.54 43.35,312.15 42.58,307.68 41.80,303.20 38.42,297.37 35.04,291.53 33.23,285.82 31.43,280.11 30.90,273.82 30.37,267.53 31.97,262.60 33.57,257.68 37.55,255.60 41.53,253.53 51.37,253.66 61.21,253.79 66.09,254.14 70.98,254.49 78.49,254.12 85.99,253.75 85.29,266.63 84.59,279.52 80.54,277.06 76.50,274.61 72.11,270.50 67.73,266.39 63.62,261.25 59.50,256.11 56.06,250.83 52.62,245.55 50.85,241.07 49.09,236.58 46.51,231.11 43.93,225.64 41.22,221.37 38.50,217.10 36.60,212.20 34.70,207.31 33.02,203.09 31.34,198.88 29.37,194.86 27.41,190.85 26.32,185.08 25.23,179.32 24.19,173.03 23.16,166.74 22.24,161.95 21.32,157.16 20.78,150.37 20.24,143.58 20.46,138.98 20.68,134.37 23.13,130.39 25.58,126.40 32.27,123.47 38.96,120.55 43.44,121.54 47.92,122.54 53.71,121.35 59.50,120.15 55.33,123.25 51.17,126.35 54.69,123.94 58.21,121.54 71.25,122.64 84.28,123.73 84.78,125.49 85.28,127.25 85.35,129.07 85.41,130.90 85.04,132.69 84.66,134.48 83.87,136.13 83.08,137.78 81.92,139.19 80.76,140.60 79.29,141.69 77.82,142.78 76.14,143.49 74.45,144.20 72.65,144.49 70.84,144.77 69.02,144.62 67.20,144.46 65.47,143.87 63.74,143.29 62.20,142.30 60.65,141.32 59.39,140.00 58.13,138.67 57.23,137.08 56.32,135.50 56.28,136.28 56.25,137.06 51.47,132.01 46.70,126.96 43.64,123.68 40.57,120.39 38.58,115.56 36.58,110.73 32.50,104.60 28.42,98.47 25.60,94.29 22.78,90.11 20.14,84.80 17.49,79.50 14.88,75.70 12.27,71.90 10.42,66.68 8.56,61.46 6.66,57.52 4.75,53.59 2.71,48.33 0.67,43.06 -0.98,37.66 -2.63,32.25 -3.96,25.97 -5.28,19.69 -6.51,14.47 -7.74,9.26 -8.64,6.56 -9.54,3.86 -9.87,2.66 -10.19,1.46 -10.22,0.22 -10.24,-1.01 -9.97,-2.22 -9.70,-3.43 -9.15,-4.54 -8.60,-5.66 -7.80,-6.60 -6.99,-7.55 -5.99,-8.28 -4.98,-9.01 -3.83,-9.47 -2.68,-9.94 -1.45,-10.11 -0.22,-10.29 1.00,-10.17 2.24,-10.05 3.41,-9.63 4.58,-9.22 5.61,-8.54 6.65,-7.85 7.50,-6.94 8.34,-6.03 8.94,-4.95 9.54,-3.86 9.54,-3.86 L 9.54,-3.86 Z"></path></g><g transform="translate(125.28249037333194 568.2530525374491) rotate(0 32.52155888989921 22.43600974365671)" stroke="none"><path fill="#593a0e" d="M -6.61,-11.11 Q -6.61,-11.11 -3.91,-13.50 -1.21,-15.90 3.79,-18.23 8.80,-20.56 14.00,-22.50 19.21,-24.44 24.57,-24.82 29.94,-25.19 35.66,-24.98 41.38,-24.77 46.13,-23.38 50.87,-22.00 55.96,-18.02 61.05,-14.04 65.84,-9.80 70.62,-5.56 72.92,-1.75 75.23,2.05 77.00,7.55 78.78,13.04 78.39,17.98 78.01,22.91 75.90,26.76 73.80,30.61 71.79,34.83 69.79,39.05 64.05,45.11 58.31,51.16 53.52,54.44 48.72,57.72 44.80,60.07 40.89,62.42 36.94,64.37 32.99,66.31 28.59,67.57 24.20,68.82 17.76,70.58 11.32,72.35 8.90,72.29 6.49,72.24 4.22,71.42 1.95,70.60 0.05,69.10 -1.83,67.60 -3.14,65.57 -4.45,63.55 -5.05,61.21 -5.65,58.87 -5.46,56.46 -5.28,54.05 -4.34,51.83 -3.40,49.60 -1.80,47.80 -0.19,45.99 1.89,44.79 3.99,43.59 6.35,43.12 8.72,42.65 11.12,42.96 13.51,43.27 15.68,44.33 17.85,45.39 19.57,47.09 21.29,48.79 22.37,50.95 23.46,53.10 23.80,55.49 24.14,57.89 23.70,60.26 23.26,62.63 22.08,64.74 20.90,66.85 19.11,68.48 17.33,70.10 15.11,71.07 12.90,72.03 10.49,72.24 8.09,72.45 5.74,71.88 3.40,71.31 1.35,70.02 -0.68,68.74 -2.20,66.86 -3.73,64.99 -4.57,62.73 -5.42,60.46 -5.50,58.05 -5.58,55.64 -4.88,53.32 -4.18,51.01 -2.79,49.04 -1.39,47.07 0.55,45.65 2.51,44.23 4.81,43.51 7.12,42.79 7.11,42.79 7.11,42.79 8.36,42.91 9.60,43.03 16.84,41.74 24.08,40.44 28.60,37.78 33.12,35.11 37.21,32.95 41.31,30.79 44.70,25.22 48.09,19.65 49.64,15.61 51.20,11.57 45.69,6.20 40.19,0.83 35.12,0.23 30.06,-0.36 25.60,-1.85 21.14,-3.33 16.69,-1.22 12.24,0.87 9.43,2.98 6.61,5.09 5.54,5.76 4.48,6.44 3.28,6.84 2.08,7.23 0.83,7.33 -0.42,7.44 -1.66,7.23 -2.91,7.03 -4.07,6.54 -5.23,6.04 -6.24,5.28 -7.24,4.53 -8.04,3.55 -8.84,2.57 -9.38,1.43 -9.92,0.29 -10.17,-0.93 -10.42,-2.17 -10.37,-3.43 -10.32,-4.69 -9.97,-5.90 -9.62,-7.11 -8.99,-8.20 -8.36,-9.29 -7.48,-10.20 -6.61,-11.11 -6.61,-11.11 L -6.61,-11.11 Z"></path></g><g transform="translate(224.18483916671903 553.7266170410974) rotate(0 0 30.08639254980767)" stroke="none"><path fill="#593a0e" d="M 10.60,0 Q 10.60,0 10.72,4.04 10.83,8.09 11.12,12.70 11.40,17.30 11.64,21.65 11.87,26.00 12.14,31.08 12.42,36.16 12.63,42.01 12.85,47.87 12.96,53.35 13.06,58.82 12.72,60.91 12.37,63.00 11.38,64.86 10.39,66.73 8.86,68.18 7.33,69.64 5.41,70.53 3.49,71.41 1.39,71.64 -0.70,71.87 -2.77,71.41 -4.83,70.96 -6.64,69.87 -8.45,68.78 -9.82,67.17 -11.19,65.56 -11.97,63.60 -12.75,61.63 -12.87,59.52 -12.98,57.41 -12.42,55.37 -11.85,53.34 -10.66,51.59 -9.48,49.84 -7.80,48.56 -6.11,47.28 -4.11,46.61 -2.11,45.93 0.00,45.93 2.11,45.93 4.11,46.61 6.12,47.28 7.80,48.56 9.48,49.84 10.67,51.59 11.85,53.34 12.42,55.38 12.98,57.41 12.87,59.53 12.75,61.64 11.97,63.60 11.19,65.56 9.82,67.17 8.45,68.78 6.64,69.87 4.83,70.96 2.76,71.42 0.70,71.87 -1.39,71.64 -3.49,71.41 -5.41,70.52 -7.33,69.64 -8.86,68.18 -10.40,66.73 -11.39,64.86 -12.38,62.99 -12.72,60.91 -13.06,58.82 -13.06,58.82 -13.06,58.82 -12.96,53.35 -12.85,47.87 -12.63,42.01 -12.42,36.16 -12.14,31.08 -11.87,26.00 -11.64,21.65 -11.40,17.30 -11.12,12.70 -10.83,8.09 -10.72,4.04 -10.60,0 -10.45,-1.26 -10.29,-2.53 -9.84,-3.73 -9.39,-4.92 -8.66,-5.98 -7.93,-7.03 -6.98,-7.88 -6.02,-8.72 -4.89,-9.32 -3.76,-9.91 -2.51,-10.22 -1.27,-10.52 0.00,-10.52 1.27,-10.52 2.52,-10.22 3.76,-9.91 4.89,-9.32 6.02,-8.72 6.98,-7.88 7.93,-7.03 8.66,-5.98 9.39,-4.92 9.84,-3.73 10.29,-2.53 10.45,-1.26 10.60,0.00 10.60,0.00 L 10.60,0 Z"></path></g><g transform="translate(225.29811861325402 507.09231344885154) rotate(0 0.00014589670934128662 0.00015503323484722387)" stroke="none"><path fill="#593a0e" d="M 6.46,-6.08 Q 6.46,-6.08 7.27,-4.89 8.07,-3.70 8.45,-2.31 8.83,-0.93 8.75,0.50 8.66,1.93 8.13,3.27 7.59,4.60 6.66,5.69 5.72,6.78 4.49,7.52 3.26,8.26 1.85,8.56 0.45,8.87 -0.97,8.71 -2.40,8.55 -3.70,7.94 -5.00,7.33 -6.04,6.34 -7.08,5.35 -7.75,4.07 -8.42,2.80 -8.65,1.38 -8.88,-0.02 -8.64,-1.44 -8.40,-2.86 -7.73,-4.13 -7.05,-5.39 -6.00,-6.38 -4.95,-7.36 -3.65,-7.96 -2.34,-8.56 -0.91,-8.71 0.51,-8.86 1.91,-8.55 3.31,-8.24 4.54,-7.49 5.77,-6.74 6.70,-5.65 7.62,-4.55 8.15,-3.21 8.68,-1.87 8.75,-0.44 8.82,0.99 8.43,2.37 8.04,3.75 7.23,4.94 6.42,6.13 5.28,6.99 4.13,7.86 2.76,8.31 1.40,8.77 -0.03,8.76 -1.46,8.76 -2.82,8.29 -4.18,7.83 -5.32,6.95 -6.47,6.08 -6.46,6.08 -6.46,6.08 -7.10,5.22 -7.73,4.36 -8.14,3.37 -8.55,2.38 -8.71,1.32 -8.87,0.26 -8.78,-0.79 -8.68,-1.86 -8.33,-2.87 -7.98,-3.88 -7.40,-4.78 -6.82,-5.68 -6.04,-6.42 -5.26,-7.15 -4.33,-7.68 -3.39,-8.20 -2.36,-8.49 -1.33,-8.78 -0.26,-8.81 0.80,-8.84 1.85,-8.62 2.89,-8.39 3.86,-7.92 4.82,-7.45 5.64,-6.77 6.46,-6.08 6.46,-6.08 L 6.46,-6.08 Z"></path></g><g transform="translate(267.3368131199027 552.0491305572294) rotate(0 0 31.694790476158005)" stroke="none"><path fill="#593a0e" d="M 10.67,0 Q 10.67,0 10.80,3.85 10.92,7.71 11.19,13.09 11.47,18.47 11.63,25.34 11.80,32.21 11.93,39.04 12.06,45.87 12.30,53.78 12.55,61.70 12.22,63.70 11.89,65.70 10.94,67.50 9.99,69.29 8.51,70.69 7.04,72.09 5.20,72.94 3.35,73.79 1.33,74.01 -0.68,74.23 -2.66,73.79 -4.64,73.36 -6.38,72.31 -8.12,71.26 -9.44,69.72 -10.75,68.17 -11.50,66.28 -12.26,64.39 -12.37,62.37 -12.48,60.34 -11.93,58.38 -11.39,56.42 -10.25,54.74 -9.11,53.06 -7.49,51.83 -5.87,50.60 -3.95,49.96 -2.02,49.31 0.00,49.31 2.03,49.31 3.95,49.96 5.88,50.61 7.49,51.83 9.11,53.06 10.25,54.75 11.39,56.43 11.93,58.38 12.48,60.34 12.37,62.37 12.26,64.40 11.50,66.28 10.75,68.17 9.44,69.72 8.12,71.27 6.38,72.31 4.64,73.36 2.66,73.80 0.67,74.23 -1.34,74.01 -3.36,73.79 -5.20,72.94 -7.04,72.09 -8.52,70.69 -9.99,69.29 -10.94,67.50 -11.89,65.70 -12.22,63.70 -12.55,61.69 -12.55,61.69 -12.55,61.70 -12.30,53.78 -12.06,45.87 -11.93,39.04 -11.80,32.21 -11.63,25.34 -11.47,18.47 -11.19,13.09 -10.92,7.71 -10.80,3.85 -10.67,0 -10.52,-1.27 -10.36,-2.55 -9.91,-3.75 -9.45,-4.96 -8.72,-6.02 -7.99,-7.08 -7.02,-7.93 -6.06,-8.78 -4.92,-9.38 -3.78,-9.98 -2.53,-10.29 -1.28,-10.60 0.00,-10.60 1.28,-10.60 2.53,-10.29 3.78,-9.98 4.92,-9.38 6.06,-8.78 7.03,-7.93 7.99,-7.08 8.72,-6.02 9.45,-4.96 9.91,-3.75 10.36,-2.55 10.52,-1.27 10.67,0.00 10.67,0.00 L 10.67,0 Z"></path></g><g transform="translate(450.48503943003584 479.61330904421266) rotate(0 0 65.67346045122088)" stroke="none"><path fill="#593a0e" d="M 10.54,0 Q 10.54,0 10.58,4.94 10.62,9.88 10.92,15.08 11.22,20.29 11.47,25.10 11.72,29.92 11.92,34.81 12.13,39.70 12.09,48.24 12.06,56.77 12.19,63.08 12.33,69.40 12.29,73.80 12.26,78.19 12.32,85.34 12.38,92.49 12.49,98.60 12.60,104.72 12.80,110.57 13.00,116.43 13.17,121.41 13.33,126.39 13.36,128.42 13.39,130.45 13.04,132.59 12.69,134.73 11.67,136.64 10.66,138.55 9.09,140.04 7.51,141.54 5.54,142.45 3.58,143.35 1.42,143.59 -0.72,143.82 -2.84,143.36 -4.95,142.89 -6.81,141.77 -8.67,140.66 -10.07,139.00 -11.47,137.35 -12.28,135.34 -13.08,133.33 -13.19,131.16 -13.31,129.00 -12.73,126.91 -12.15,124.82 -10.93,123.03 -9.72,121.24 -7.99,119.92 -6.27,118.61 -4.21,117.92 -2.16,117.23 0.00,117.23 2.16,117.23 4.22,117.92 6.27,118.61 8.00,119.93 9.72,121.24 10.94,123.03 12.15,124.83 12.73,126.91 13.31,129.00 13.19,131.17 13.08,133.33 12.27,135.34 11.47,137.36 10.07,139.01 8.66,140.66 6.81,141.78 4.95,142.89 2.83,143.36 0.72,143.82 -1.43,143.59 -3.58,143.35 -5.55,142.44 -7.52,141.53 -9.09,140.04 -10.66,138.55 -11.68,136.64 -12.69,134.72 -13.04,132.58 -13.39,130.44 -13.39,130.45 -13.39,130.45 -13.36,128.42 -13.33,126.39 -13.17,121.41 -13.00,116.43 -12.80,110.57 -12.60,104.72 -12.49,98.60 -12.38,92.49 -12.32,85.34 -12.26,78.19 -12.29,73.80 -12.33,69.40 -12.19,63.08 -12.06,56.77 -12.09,48.24 -12.13,39.70 -11.92,34.81 -11.72,29.92 -11.47,25.10 -11.22,20.29 -10.92,15.08 -10.62,9.88 -10.58,4.94 -10.54,0 -10.39,-1.26 -10.23,-2.52 -9.78,-3.71 -9.33,-4.89 -8.61,-5.94 -7.89,-6.99 -6.94,-7.83 -5.98,-8.67 -4.86,-9.26 -3.73,-9.85 -2.50,-10.16 -1.27,-10.46 0.00,-10.46 1.27,-10.46 2.50,-10.16 3.73,-9.85 4.86,-9.26 5.98,-8.67 6.94,-7.83 7.89,-6.99 8.61,-5.94 9.33,-4.89 9.78,-3.71 10.23,-2.52 10.39,-1.26 10.54,0.00 10.54,0.00 L 10.54,0 Z"></path></g><g transform="translate(686.2965539901254 473.4945290640449) rotate(0 3.1760278000780886 69.40333565202448)" stroke="none"><path fill="#593a0e" d="M 10.49,-2.00 Q 10.49,-2.00 11.34,1.80 12.19,5.61 12.99,10.43 13.78,15.25 14.11,20.16 14.43,25.08 14.59,31.23 14.75,37.38 14.89,43.22 15.03,49.06 15.09,56.03 15.14,63.00 15.18,69.86 15.23,76.71 15.13,81.47 15.03,86.23 15.06,93.49 15.09,100.75 14.98,109.39 14.87,118.02 14.99,123.54 15.11,129.05 14.01,128.34 12.90,127.62 14.42,129.06 15.94,130.50 16.92,132.34 17.91,134.19 18.25,136.25 18.59,138.32 18.25,140.38 17.92,142.45 16.94,144.30 15.96,146.15 14.45,147.59 12.93,149.03 11.03,149.91 9.13,150.79 7.06,151.02 4.98,151.25 2.93,150.80 0.89,150.35 -0.89,149.28 -2.69,148.20 -4.04,146.61 -5.40,145.02 -6.18,143.07 -6.95,141.13 -7.07,139.04 -7.19,136.96 -6.63,134.94 -6.07,132.92 -4.90,131.19 -3.73,129.46 -2.07,128.19 -0.40,126.92 1.57,126.25 3.55,125.58 5.64,125.58 7.73,125.57 9.72,126.24 11.70,126.91 13.37,128.17 15.03,129.43 16.21,131.16 17.39,132.89 17.95,134.91 18.51,136.92 18.40,139.01 18.29,141.10 17.52,143.04 16.75,144.99 15.39,146.58 14.04,148.18 12.25,149.26 10.46,150.34 8.42,150.79 6.37,151.25 4.29,151.02 2.21,150.80 0.31,149.92 -1.57,149.05 -1.57,149.05 -1.57,149.05 -4.70,144.98 -7.83,140.91 -8.93,134.98 -10.03,129.05 -9.91,123.54 -9.78,118.02 -9.89,109.39 -10.00,100.75 -9.97,93.49 -9.94,86.23 -9.99,78.53 -10.04,70.83 -10.01,63.72 -9.97,56.61 -9.90,49.98 -9.82,43.35 -9.66,37.90 -9.51,32.45 -9.37,26.49 -9.24,20.53 -9.25,15.12 -9.27,9.70 -9.88,5.85 -10.49,2.00 -10.58,0.71 -10.67,-0.56 -10.44,-1.83 -10.22,-3.10 -9.70,-4.28 -9.18,-5.46 -8.39,-6.48 -7.60,-7.50 -6.60,-8.30 -5.59,-9.10 -4.42,-9.64 -3.25,-10.17 -1.98,-10.41 -0.72,-10.66 0.56,-10.59 1.85,-10.52 3.08,-10.14 4.31,-9.77 5.42,-9.11 6.53,-8.45 7.44,-7.55 8.36,-6.64 9.03,-5.55 9.71,-4.45 10.10,-3.22 10.49,-2.00 10.49,-2.00 L 10.49,-2.00 Z"></path></g><g transform="translate(761.8824706612401 546.8828455050387) rotate(0 -14.533781763324782 31.1395167687333)" stroke="none"><path fill="#593a0e" d="M 9.20,9.58 Q 9.20,9.58 4.63,11.61 0.06,13.64 -4.96,16.84 -10.00,20.03 -14.75,24.21 -19.50,28.38 -18.51,22.65 -17.52,16.91 -10.32,16.15 -3.11,15.40 1.05,16.89 5.23,18.37 11.14,24.14 17.05,29.90 18.40,35.91 19.74,41.91 18.56,47.31 17.38,52.70 14.68,56.53 11.98,60.37 7.46,63.11 2.93,65.86 -3.84,69.17 -10.62,72.47 -16.17,73.47 -21.72,74.48 -27.04,74.97 -32.36,75.47 -34.53,75.29 -36.69,75.12 -38.68,74.26 -40.68,73.40 -42.29,71.95 -43.90,70.50 -44.97,68.61 -46.04,66.72 -46.45,64.59 -46.85,62.46 -46.56,60.31 -46.26,58.16 -45.30,56.21 -44.33,54.27 -42.80,52.74 -41.26,51.20 -39.32,50.24 -37.37,49.28 -35.22,48.99 -33.07,48.69 -30.94,49.11 -28.81,49.52 -26.92,50.59 -25.03,51.65 -23.58,53.27 -22.14,54.89 -21.28,56.88 -20.42,58.88 -20.25,61.04 -20.08,63.20 -20.60,65.31 -21.13,67.41 -22.30,69.24 -23.47,71.07 -25.16,72.43 -26.85,73.78 -28.89,74.53 -30.93,75.28 -33.10,75.33 -35.27,75.39 -37.34,74.75 -39.41,74.11 -41.18,72.85 -42.94,71.58 -44.20,69.82 -45.47,68.05 -46.10,65.98 -46.74,63.90 -46.68,61.73 -46.61,59.56 -45.86,57.53 -45.11,55.49 -43.75,53.80 -42.39,52.11 -40.56,50.94 -38.73,49.78 -36.63,49.25 -34.52,48.73 -34.52,48.73 -34.52,48.73 -30.22,48.45 -25.91,48.17 -20.81,46.80 -15.71,45.42 -11.67,43.15 -7.62,40.88 -12.45,39.52 -17.27,38.17 -23.34,36.55 -29.41,34.92 -32.38,30.94 -35.34,26.95 -32.73,18.36 -30.12,9.77 -25.81,5.39 -21.49,1.00 -14.90,-2.33 -8.31,-5.68 -3.70,-7.63 0.89,-9.58 2.10,-9.94 3.31,-10.30 4.56,-10.35 5.82,-10.41 7.06,-10.17 8.29,-9.93 9.43,-9.39 10.58,-8.86 11.56,-8.07 12.54,-7.28 13.30,-6.28 14.06,-5.28 14.56,-4.12 15.06,-2.96 15.27,-1.72 15.48,-0.48 15.39,0.76 15.30,2.02 14.91,3.22 14.51,4.41 13.85,5.48 13.18,6.55 12.28,7.43 11.38,8.31 10.29,8.94 9.20,9.58 9.20,9.58 L 9.20,9.58 Z"></path></g><g transform="translate(461.9889581243067 550.4818283144693) rotate(0 19.416350959060765 28.776581366333858)" stroke="none"><path fill="#593a0e" d="M -3.79,-9.52 Q -3.79,-9.52 -1.50,-10.63 0.78,-11.73 6.18,-13.07 11.58,-14.40 18.01,-13.20 24.44,-12.00 29.44,-9.50 34.43,-6.99 40.26,-3.54 46.10,-0.09 49.63,3.62 53.15,7.34 54.22,12.04 55.29,16.75 56.26,21.03 57.23,25.31 56.11,30.81 54.99,36.30 52.98,40.50 50.97,44.69 46.82,49.51 42.67,54.32 38.83,58.00 35.00,61.69 28.82,65.62 22.64,69.55 18.61,71.08 14.57,72.60 9.13,73.63 3.69,74.66 -1.62,74.50 -6.95,74.34 -9.11,73.53 -11.27,72.71 -13.05,71.25 -14.84,69.79 -16.07,67.84 -17.29,65.89 -17.83,63.64 -18.37,61.40 -18.17,59.10 -17.96,56.80 -17.03,54.69 -16.11,52.58 -14.55,50.87 -13.00,49.16 -10.98,48.04 -8.96,46.92 -6.69,46.51 -4.42,46.09 -2.14,46.42 0.14,46.75 2.20,47.79 4.26,48.83 5.87,50.48 7.49,52.12 8.50,54.20 9.51,56.27 9.80,58.56 10.10,60.85 9.64,63.12 9.19,65.38 8.04,67.38 6.89,69.38 5.16,70.90 3.43,72.43 1.30,73.33 -0.82,74.22 -3.12,74.39 -5.42,74.56 -7.65,73.98 -9.89,73.41 -11.82,72.15 -13.76,70.89 -15.19,69.08 -16.62,67.27 -17.40,65.10 -18.18,62.93 -18.22,60.62 -18.27,58.31 -17.57,56.11 -16.87,53.91 -15.51,52.05 -14.15,50.18 -12.27,48.85 -10.38,47.52 -8.17,46.86 -5.96,46.20 -3.65,46.28 -1.35,46.37 -1.35,46.37 -1.35,46.37 -1.20,46.42 -1.05,46.47 3.72,45.72 8.49,44.97 12.46,42.42 16.43,39.86 19.77,36.67 23.12,33.48 26.63,29.46 30.15,25.45 28.72,20.60 27.28,15.74 22.72,13.23 18.16,10.72 13.39,9.35 8.61,7.99 6.20,8.75 3.79,9.52 2.60,9.84 1.40,10.15 0.16,10.17 -1.06,10.19 -2.27,9.92 -3.47,9.64 -4.57,9.09 -5.68,8.53 -6.62,7.73 -7.56,6.92 -8.28,5.92 -8.99,4.91 -9.45,3.76 -9.91,2.61 -10.08,1.39 -10.25,0.17 -10.12,-1.05 -9.99,-2.28 -9.57,-3.45 -9.15,-4.61 -8.47,-5.64 -7.78,-6.67 -6.87,-7.50 -5.96,-8.34 -4.87,-8.93 -3.79,-9.52 -3.79,-9.52 L -3.79,-9.52 Z"></path></g><g transform="translate(389.20663816630713 596.6035184642107) rotate(0 -0.08090138929730983 -13.438562738823293)" stroke="none"><path fill="#593a0e" d="M -8.45,-27.15 Q -8.45,-27.15 -5.73,-27.34 -3.02,-27.53 0.36,-30.23 3.75,-32.93 -0.82,-30.77 -5.40,-28.61 -8.75,-25.05 -12.11,-21.48 -12.98,-16.94 -13.86,-12.41 -14.09,-7.57 -14.32,-2.74 -9.33,-0.94 -4.35,0.85 1.21,0.90 6.78,0.95 11.74,-0.21 16.69,-1.39 19.70,-2.39 22.70,-3.40 24.95,-3.74 27.21,-4.08 29.45,-3.69 31.69,-3.29 33.69,-2.20 35.69,-1.11 37.24,0.55 38.79,2.22 39.72,4.30 40.65,6.38 40.87,8.65 41.09,10.91 40.58,13.13 40.06,15.35 38.86,17.29 37.67,19.23 35.91,20.68 34.16,22.14 32.04,22.95 29.91,23.77 27.63,23.87 25.36,23.97 23.17,23.33 20.98,22.70 19.11,21.40 17.24,20.10 15.89,18.27 14.53,16.44 13.83,14.27 13.12,12.10 13.15,9.83 13.18,7.55 13.93,5.40 14.68,3.25 16.08,1.45 17.48,-0.34 19.38,-1.59 21.28,-2.85 23.48,-3.43 25.68,-4.02 27.96,-3.87 30.23,-3.72 32.34,-2.85 34.44,-1.98 36.16,-0.49 37.88,1.00 39.03,2.97 40.18,4.93 40.65,7.16 41.11,9.39 40.84,11.65 40.56,13.91 39.58,15.97 38.60,18.03 37.02,19.66 35.43,21.30 33.41,22.34 31.38,23.38 31.38,23.38 31.39,23.38 28.61,24.25 25.83,25.13 19.29,26.88 12.75,28.63 7.87,28.92 2.99,29.22 -4.01,28.61 -11.02,28.00 -18.29,25.38 -25.56,22.76 -29.69,19.50 -33.82,16.24 -36.36,12.56 -38.90,8.88 -40.69,3.21 -42.47,-2.45 -42.33,-9.18 -42.19,-15.91 -40.60,-23.25 -39.00,-30.59 -35.68,-35.96 -32.35,-41.33 -28.22,-45.45 -24.10,-49.57 -19.64,-52.13 -15.19,-54.68 -8.81,-55.33 -2.42,-55.98 2.09,-55.31 6.61,-54.64 11.85,-52.34 17.09,-50.05 21.20,-45.70 25.31,-41.35 26.48,-35.77 27.65,-30.20 25.73,-25.40 23.80,-20.60 20.62,-16.85 17.43,-13.10 13.34,-11.02 9.24,-8.93 3.12,-7.75 -3.00,-6.57 -5.72,-6.76 -8.45,-6.95 -9.66,-7.10 -10.87,-7.25 -12.01,-7.68 -13.14,-8.11 -14.15,-8.80 -15.15,-9.49 -15.95,-10.40 -16.76,-11.32 -17.33,-12.39 -17.89,-13.47 -18.18,-14.65 -18.47,-15.83 -18.47,-17.05 -18.47,-18.27 -18.18,-19.45 -17.89,-20.63 -17.33,-21.71 -16.76,-22.79 -15.95,-23.70 -15.15,-24.61 -14.14,-25.30 -13.14,-25.99 -12.00,-26.42 -10.87,-26.85 -9.66,-27.00 -8.45,-27.15 -8.45,-27.15 L -8.45,-27.15 Z"></path></g><g transform="translate(125.95824029190112 546.2149120211299) rotate(0 1.497641694140384 79.15421194072383)" stroke="none"><path fill="#593a0e" d="M 10.40,0 Q 10.40,0 10.56,3.53 10.71,7.07 11.08,11.74 11.45,16.40 11.75,21.07 12.04,25.74 12.33,30.55 12.61,35.37 12.81,39.82 13.00,44.27 13.19,48.80 13.38,53.34 13.54,57.88 13.69,62.42 13.79,67.40 13.89,72.37 14.49,78.56 15.10,84.75 15.29,89.20 15.48,93.65 15.57,98.24 15.66,102.84 15.73,107.34 15.79,111.85 15.82,116.43 15.85,121.00 16.48,125.63 17.11,130.26 17.44,136.22 17.78,142.18 17.83,146.70 17.88,151.22 17.90,154.48 17.92,157.73 17.53,160.12 17.14,162.50 16.00,164.63 14.87,166.77 13.12,168.43 11.37,170.09 9.18,171.10 6.98,172.12 4.58,172.38 2.18,172.64 -0.17,172.12 -2.52,171.60 -4.59,170.36 -6.66,169.11 -8.23,167.27 -9.79,165.43 -10.68,163.19 -11.58,160.94 -11.71,158.53 -11.84,156.12 -11.19,153.79 -10.55,151.47 -9.19,149.47 -7.84,147.47 -5.91,146.01 -3.99,144.55 -1.70,143.78 0.58,143.00 2.99,143.00 5.41,143.01 7.70,143.78 9.98,144.55 11.91,146.01 13.83,147.47 15.18,149.47 16.54,151.47 17.18,153.80 17.83,156.12 17.70,158.53 17.57,160.95 16.67,163.19 15.78,165.43 14.22,167.27 12.65,169.11 10.58,170.36 8.51,171.60 6.15,172.12 3.80,172.64 1.39,172.38 -1.00,172.12 -3.19,171.10 -5.38,170.09 -7.13,168.43 -8.88,166.77 -10.02,164.63 -11.15,162.50 -11.54,160.11 -11.93,157.73 -11.93,157.73 -11.93,157.74 -11.92,155.51 -11.91,153.28 -11.88,148.91 -11.85,144.53 -11.82,140.18 -11.80,135.83 -12.64,129.70 -13.48,123.57 -13.46,118.93 -13.43,114.29 -13.36,109.84 -13.30,105.40 -13.22,100.97 -13.15,96.55 -13.08,91.18 -13.01,85.80 -13.45,79.09 -13.89,72.37 -13.79,67.40 -13.69,62.42 -13.54,57.88 -13.38,53.34 -13.19,48.80 -13.00,44.27 -12.81,39.82 -12.61,35.37 -12.33,30.55 -12.04,25.74 -11.75,21.07 -11.45,16.40 -11.08,11.74 -10.71,7.07 -10.56,3.53 -10.40,0 -10.25,-1.24 -10.10,-2.49 -9.65,-3.66 -9.21,-4.83 -8.50,-5.86 -7.78,-6.90 -6.85,-7.73 -5.91,-8.56 -4.80,-9.14 -3.68,-9.73 -2.47,-10.03 -1.25,-10.33 0.00,-10.33 1.25,-10.33 2.47,-10.03 3.69,-9.72 4.80,-9.14 5.91,-8.56 6.85,-7.73 7.78,-6.90 8.50,-5.86 9.21,-4.83 9.65,-3.66 10.10,-2.48 10.25,-1.24 10.40,0.00 10.40,0.00 L 10.40,0 Z"></path></g><g transform="translate(639.772746535366 476.6657362548593) rotate(0 -0.74434310795084 65.5775397016784)" stroke="none"><path fill="#593a0e" d="M 11.02,2.14 Q 11.02,2.14 10.36,5.97 9.69,9.80 9.60,14.57 9.50,19.35 9.63,24.93 9.75,30.51 10.52,36.35 11.28,42.18 11.91,50.52 12.55,58.85 12.72,65.99 12.90,73.13 13.01,79.36 13.13,85.58 13.26,90.95 13.38,96.31 13.51,100.63 13.63,104.95 13.80,110.19 13.96,115.43 14.09,121.00 14.22,126.56 14.24,128.44 14.27,130.32 13.91,132.50 13.55,134.68 12.52,136.63 11.48,138.58 9.88,140.10 8.28,141.62 6.27,142.55 4.27,143.47 2.07,143.71 -0.11,143.95 -2.27,143.48 -4.43,143.00 -6.32,141.86 -8.21,140.72 -9.64,139.04 -11.07,137.36 -11.89,135.31 -12.71,133.25 -12.83,131.05 -12.95,128.84 -12.35,126.72 -11.76,124.59 -10.52,122.76 -9.28,120.93 -7.53,119.60 -5.77,118.26 -3.67,117.56 -1.58,116.85 0.62,116.85 2.83,116.85 4.92,117.56 7.01,118.26 8.77,119.60 10.53,120.94 11.77,122.76 13.00,124.59 13.60,126.72 14.19,128.85 14.07,131.05 13.95,133.26 13.13,135.31 12.31,137.36 10.88,139.04 9.45,140.73 7.56,141.86 5.66,143.00 3.51,143.48 1.35,143.95 -0.83,143.71 -3.03,143.47 -5.03,142.55 -7.04,141.62 -8.64,140.10 -10.24,138.58 -11.28,136.63 -12.31,134.68 -12.67,132.50 -13.03,130.32 -13.03,130.32 -13.03,130.32 -13.00,128.44 -12.98,126.56 -12.85,121.00 -12.72,115.43 -12.56,110.19 -12.39,104.95 -12.27,100.63 -12.15,96.32 -12.03,90.97 -11.91,85.62 -11.82,79.46 -11.73,73.30 -11.73,66.47 -11.72,59.65 -12.03,53.13 -12.35,46.62 -13.12,38.48 -13.89,30.34 -13.60,24.32 -13.30,18.31 -12.45,11.86 -11.59,5.41 -10.69,1.63 -9.78,-2.14 -9.37,-3.35 -8.96,-4.57 -8.28,-5.65 -7.59,-6.73 -6.66,-7.61 -5.74,-8.50 -4.63,-9.14 -3.52,-9.78 -2.29,-10.13 -1.06,-10.48 0.21,-10.53 1.49,-10.58 2.74,-10.32 4.00,-10.06 5.15,-9.51 6.31,-8.96 7.30,-8.15 8.29,-7.34 9.06,-6.31 9.82,-5.29 10.32,-4.11 10.82,-2.93 11.03,-1.67 11.23,-0.40 11.12,0.86 11.02,2.14 11.02,2.14 L 11.02,2.14 Z"></path></g><g transform="translate(277.7162764880984 565.573870616122) rotate(0 21.587374048350284 17.15223492083942)" stroke="none"><path fill="#593a0e" d="M -5.84,-8.03 Q -5.84,-8.03 -3.13,-10.07 -0.42,-12.12 3.73,-15.30 7.88,-18.48 13.16,-21.05 18.44,-23.63 23.12,-23.70 27.81,-23.77 32.79,-21.53 37.77,-19.29 43.61,-13.78 49.45,-8.27 51.13,-1.85 52.81,4.56 53.97,11.67 55.13,18.78 55.26,23.45 55.40,28.12 56.18,33.99 56.96,39.86 57.04,42.76 57.12,45.66 56.79,47.89 56.47,50.13 55.44,52.15 54.41,54.16 52.80,55.74 51.18,57.33 49.15,58.31 47.11,59.29 44.87,59.57 42.63,59.86 40.41,59.41 38.19,58.96 36.24,57.82 34.28,56.69 32.79,54.99 31.30,53.29 30.43,51.21 29.55,49.12 29.39,46.87 29.23,44.61 29.80,42.42 30.37,40.24 31.61,38.34 32.85,36.45 34.62,35.05 36.40,33.66 38.53,32.90 40.66,32.14 42.92,32.10 45.18,32.07 47.34,32.75 49.49,33.44 51.31,34.78 53.14,36.11 54.43,37.96 55.73,39.81 56.38,41.98 57.02,44.15 56.93,46.41 56.85,48.67 56.04,50.78 55.24,52.90 53.81,54.64 52.37,56.39 50.45,57.59 48.54,58.79 46.34,59.31 44.14,59.83 41.89,59.62 39.63,59.42 37.57,58.50 35.50,57.59 33.83,56.06 32.17,54.53 31.07,52.55 29.98,50.57 29.58,48.35 29.18,46.12 29.18,46.12 29.18,46.13 29.17,43.74 29.16,41.35 28.62,37.12 28.07,32.90 28.09,28.49 28.11,24.09 28.15,18.97 28.20,13.85 27.90,7.95 27.60,2.05 23.37,1.57 19.14,1.10 15.38,3.32 11.63,5.55 8.73,7.32 5.84,9.10 4.73,9.67 3.62,10.25 2.40,10.54 1.19,10.83 -0.05,10.82 -1.30,10.82 -2.52,10.51 -3.73,10.20 -4.83,9.62 -5.93,9.03 -6.87,8.20 -7.80,7.36 -8.50,6.33 -9.20,5.30 -9.64,4.12 -10.08,2.95 -10.22,1.71 -10.36,0.47 -10.21,-0.76 -10.05,-2.00 -9.60,-3.17 -9.15,-4.33 -8.43,-5.36 -7.72,-6.38 -6.78,-7.20 -5.84,-8.03 -5.84,-8.03 L -5.84,-8.03 Z"></path></g><g transform="translate(540.05134887857 552.7948878744378) rotate(0 26.72844002240174 28.305787746350973)" stroke="none"><path fill="#593a0e" d="M 10.23,0 Q 10.23,0 10.41,3.10 10.59,6.20 11.04,11.53 11.49,16.86 11.88,22.58 12.28,28.31 12.49,32.63 12.71,36.96 13.84,41.09 14.98,45.22 18.07,41.95 21.16,38.68 24.51,34.33 27.86,29.98 29.72,25.28 31.57,20.57 31.93,15.55 32.29,10.52 32.27,8.58 32.24,6.64 32.46,4.85 32.68,3.06 33.32,1.38 33.96,-0.29 34.99,-1.77 36.01,-3.25 37.36,-4.45 38.71,-5.64 40.31,-6.47 41.90,-7.31 43.65,-7.74 45.40,-8.17 47.20,-8.17 49.00,-8.16 50.75,-7.73 52.50,-7.30 54.09,-6.46 55.68,-5.62 57.03,-4.42 58.37,-3.23 59.40,-1.75 60.42,-0.26 61.05,1.41 61.69,3.10 61.90,4.88 62.12,6.67 62.14,11.99 62.16,17.30 62.14,23.07 62.11,28.85 62.35,33.48 62.59,38.11 63.96,43.33 65.33,48.56 65.45,48.27 65.58,47.99 66.54,50.19 67.51,52.39 67.72,54.79 67.93,57.18 67.36,59.52 66.80,61.86 65.52,63.89 64.23,65.93 62.37,67.44 60.51,68.96 58.25,69.81 56.00,70.65 53.60,70.73 51.19,70.81 48.89,70.12 46.59,69.43 44.63,68.04 42.66,66.65 41.25,64.71 39.83,62.76 39.11,60.47 38.39,58.17 38.44,55.77 38.49,53.37 39.30,51.10 40.12,48.84 41.61,46.96 43.11,45.07 45.13,43.76 47.14,42.46 49.47,41.86 51.80,41.27 54.20,41.45 56.60,41.63 58.82,42.56 61.03,43.50 62.83,45.09 64.63,46.69 65.83,48.77 67.02,50.86 67.49,53.22 67.96,55.58 67.65,57.96 67.34,60.35 66.29,62.51 65.23,64.67 63.54,66.38 61.85,68.09 59.71,69.17 57.56,70.25 55.18,70.59 52.80,70.93 50.43,70.49 48.07,70.06 45.97,68.89 43.87,67.72 42.25,65.94 40.63,64.16 40.63,64.16 40.63,64.16 38.31,58.33 36.00,52.50 34.64,47.82 33.29,43.14 32.77,35.99 32.26,28.85 32.23,23.07 32.20,17.30 32.22,11.97 32.24,6.64 32.46,4.85 32.68,3.06 33.32,1.38 33.96,-0.29 34.99,-1.77 36.01,-3.25 37.36,-4.45 38.71,-5.64 40.30,-6.47 41.90,-7.31 43.65,-7.74 45.40,-8.17 47.20,-8.17 49.00,-8.16 50.75,-7.73 52.49,-7.30 54.09,-6.46 55.68,-5.62 57.03,-4.43 58.37,-3.23 59.40,-1.75 60.42,-0.26 61.05,1.41 61.69,3.10 61.90,4.88 62.12,6.67 62.06,9.83 61.99,12.99 61.39,17.68 60.79,22.36 59.95,26.58 59.12,30.80 56.94,36.16 54.76,41.52 51.18,46.52 47.60,51.52 43.96,55.83 40.33,60.14 35.75,61.93 31.18,63.73 25.66,66.37 20.14,69.01 14.34,68.52 8.54,68.02 4.08,66.63 -0.37,65.24 -4.33,60.74 -8.29,56.24 -9.70,50.92 -11.11,45.61 -11.91,41.39 -12.71,37.18 -12.49,32.74 -12.28,28.31 -11.88,22.58 -11.49,16.86 -11.04,11.53 -10.59,6.20 -10.41,3.10 -10.23,0 -10.09,-1.22 -9.94,-2.45 -9.50,-3.60 -9.06,-4.75 -8.36,-5.77 -7.66,-6.78 -6.74,-7.60 -5.81,-8.42 -4.72,-9.00 -3.63,-9.57 -2.43,-9.86 -1.23,-10.16 0.00,-10.16 1.23,-10.16 2.43,-9.86 3.63,-9.57 4.72,-8.99 5.81,-8.42 6.74,-7.60 7.66,-6.78 8.36,-5.77 9.06,-4.75 9.50,-3.60 9.94,-2.44 10.09,-1.22 10.23,0.00 10.23,0.00 L 10.23,0 Z"></path></g><g transform="translate(603.0113200779597 517.178540384577) rotate(0 62.41248068050032 0)" stroke="none"><path fill="#593a0e" d="M 0,-10.47 Q 0,-10.47 4.33,-10.58 8.67,-10.68 14.40,-11.08 20.13,-11.49 24.69,-11.78 29.25,-12.08 34.39,-12.33 39.53,-12.57 44.18,-12.70 48.83,-12.82 54.73,-12.89 60.64,-12.96 66.40,-13.03 72.15,-13.09 79.71,-13.04 87.28,-12.98 93.91,-12.99 100.54,-13.01 105.59,-13.09 110.64,-13.18 115.66,-13.33 120.69,-13.47 122.57,-13.48 124.45,-13.50 126.60,-13.14 128.76,-12.79 130.69,-11.77 132.62,-10.74 134.12,-9.16 135.63,-7.57 136.54,-5.59 137.46,-3.61 137.70,-1.44 137.93,0.73 137.46,2.86 136.99,4.99 135.87,6.87 134.74,8.74 133.07,10.15 131.41,11.57 129.38,12.37 127.35,13.18 125.17,13.30 122.99,13.42 120.88,12.83 118.78,12.25 116.97,11.02 115.16,9.80 113.84,8.06 112.52,6.32 111.82,4.25 111.12,2.18 111.12,-0.00 111.12,-2.18 111.82,-4.25 112.52,-6.32 113.84,-8.06 115.16,-9.80 116.97,-11.03 118.78,-12.25 120.89,-12.83 122.99,-13.42 125.17,-13.30 127.35,-13.18 129.38,-12.37 131.41,-11.56 133.08,-10.15 134.74,-8.73 135.87,-6.86 136.99,-4.99 137.46,-2.86 137.93,-0.72 137.70,1.44 137.46,3.61 136.54,5.59 135.62,7.58 134.12,9.16 132.62,10.75 130.69,11.77 128.76,12.79 126.60,13.15 124.44,13.50 124.45,13.50 124.45,13.50 122.57,13.48 120.69,13.47 115.66,13.33 110.64,13.18 105.59,13.09 100.54,13.01 93.91,12.99 87.28,12.98 79.71,13.04 72.15,13.09 66.40,13.03 60.64,12.96 54.73,12.89 48.83,12.82 44.18,12.70 39.53,12.57 34.39,12.33 29.25,12.08 24.69,11.78 20.13,11.49 14.40,11.08 8.67,10.68 4.33,10.58 0,10.47 -1.25,10.32 -2.50,10.17 -3.68,9.72 -4.86,9.27 -5.90,8.55 -6.94,7.84 -7.78,6.89 -8.62,5.95 -9.20,4.83 -9.79,3.71 -10.09,2.48 -10.40,1.26 -10.40,-0.00 -10.40,-1.26 -10.09,-2.48 -9.79,-3.71 -9.20,-4.83 -8.62,-5.95 -7.78,-6.89 -6.94,-7.84 -5.90,-8.56 -4.86,-9.27 -3.68,-9.72 -2.50,-10.17 -1.25,-10.32 0.00,-10.47 0.00,-10.47 L 0,-10.47 Z"></path></g></svg>