<svg version="1.1" xmlns="http://www.w3.org/2000/svg" viewBox="0 0 700 600" width="700" height="600">
  <!-- svg-source:excalidraw -->
  
  <defs>
    <style class="style-fonts">
      
    </style>
    
  </defs>
  <g transform="translate(270.91162847510896 501.0467123837236) rotate(0 77.73197680961403 -199.01886823908944)" stroke="none"><path fill="#593a0e" d="M -0.70,6.63 Q -0.70,6.63 -4.19,6.55 -7.67,6.47 -12.79,6.54 -17.91,6.60 -22.67,6.91 -27.43,7.21 -31.94,7.47 -36.45,7.73 -41.64,7.57 -46.84,7.40 -52.43,7.58 -58.02,7.76 -63.00,7.91 -67.97,8.06 -73.29,8.18 -78.61,8.30 -83.41,8.42 -88.22,8.53 -92.77,8.26 -97.32,7.98 -103.33,7.62 -109.34,7.26 -116.34,6.14 -123.34,5.03 -127.70,4.86 -132.07,4.70 -136.44,4.08 -140.82,3.47 -145.24,2.37 -149.65,1.26 -155.96,-0.26 -162.27,-1.78 -167.29,-3.76 -172.32,-5.74 -176.22,-8.12 -180.12,-10.49 -185.82,-14.74 -191.52,-18.99 -194.69,-22.29 -197.86,-25.58 -200.54,-29.04 -203.23,-32.51 -205.53,-36.63 -207.83,-40.76 -209.90,-46.12 -211.96,-51.48 -213.05,-56.56 -214.14,-61.65 -215.02,-66.64 -215.90,-71.64 -216.34,-76.66 -216.79,-81.68 -217.23,-86.82 -217.68,-91.97 -217.69,-96.38 -217.70,-100.80 -217.86,-105.42 -218.01,-110.04 -218.06,-115.09 -218.10,-120.14 -218.10,-124.50 -218.11,-128.85 -218.11,-133.93 -218.11,-139.02 -218.10,-143.78 -218.08,-148.54 -218.07,-153.31 -218.05,-158.08 -218.05,-163.33 -218.05,-168.58 -218.04,-173.59 -218.04,-178.59 -218.03,-183.30 -218.02,-188.00 -217.81,-192.90 -217.60,-197.81 -217.39,-202.59 -217.18,-207.37 -217.14,-212.98 -217.10,-218.58 -217.09,-223.96 -217.07,-229.34 -217.08,-234.61 -217.09,-239.88 -217.10,-244.43 -217.11,-248.97 -217.32,-253.23 -217.52,-257.49 -217.54,-262.54 -217.57,-267.59 -217.15,-272.99 -216.73,-278.39 -216.34,-283.15 -215.94,-287.92 -215.35,-292.15 -214.75,-296.37 -213.95,-301.77 -213.15,-307.16 -212.69,-311.39 -212.23,-315.62 -211.34,-320.02 -210.45,-324.42 -208.78,-330.54 -207.11,-336.67 -205.35,-342.51 -203.59,-348.34 -201.74,-352.90 -199.89,-357.46 -197.04,-362.86 -194.18,-368.26 -191.63,-371.71 -189.07,-375.16 -185.13,-379.07 -181.20,-382.98 -177.33,-385.69 -173.46,-388.41 -168.33,-391.18 -163.21,-393.95 -158.87,-395.65 -154.54,-397.35 -150.20,-398.46 -145.86,-399.57 -140.95,-400.57 -136.03,-401.57 -131.89,-402.68 -127.75,-403.79 -122.90,-404.61 -118.05,-405.43 -113.27,-406.30 -108.50,-407.16 -103.01,-407.80 -97.51,-408.44 -92.98,-408.68 -88.46,-408.93 -82.70,-409.49 -76.94,-410.06 -71.90,-410.38 -66.85,-410.71 -60.98,-410.98 -55.11,-411.25 -50.67,-411.43 -46.23,-411.62 -41.76,-411.65 -37.29,-411.68 -32.48,-411.69 -27.67,-411.69 -23.34,-411.54 -19.01,-411.38 -14.26,-411.14 -9.50,-410.90 -4.46,-410.91 0.58,-410.92 5.14,-410.92 9.71,-410.92 14.62,-410.93 19.54,-410.94 23.79,-410.74 28.05,-410.53 32.82,-410.37 37.60,-410.20 42.56,-410.20 47.53,-410.21 52.07,-410.21 56.62,-410.22 61.89,-410.21 67.17,-410.21 72.38,-410.40 77.58,-410.59 81.91,-411.10 86.23,-411.60 91.16,-411.92 96.08,-412.25 100.48,-412.47 104.89,-412.70 109.88,-412.72 114.86,-412.73 119.28,-412.72 123.70,-412.71 128.34,-412.70 132.98,-412.69 137.68,-412.51 142.38,-412.32 147.37,-412.13 152.36,-411.94 156.72,-411.48 161.09,-411.03 165.34,-410.66 169.58,-410.29 174.21,-409.68 178.84,-409.07 184.21,-408.45 189.58,-407.83 195.28,-407.63 200.97,-407.43 206.14,-407.20 211.31,-406.97 215.98,-406.93 220.64,-406.89 225.25,-406.30 229.86,-405.71 234.64,-405.68 239.43,-405.66 244.14,-405.29 248.84,-404.92 253.55,-404.46 258.25,-404.01 262.99,-403.31 267.73,-402.62 273.27,-402.10 278.82,-401.57 283.43,-400.90 288.04,-400.23 292.40,-398.83 296.76,-397.43 302.10,-395.66 307.43,-393.89 311.99,-392.14 316.55,-390.40 321.33,-388.39 326.11,-386.38 330.51,-383.76 334.91,-381.14 339.10,-377.15 343.29,-373.16 346.18,-369.21 349.07,-365.27 351.75,-361.23 354.43,-357.19 357.12,-351.95 359.82,-346.71 361.39,-342.22 362.96,-337.73 364.11,-332.74 365.27,-327.74 366.38,-323.41 367.50,-319.07 368.10,-314.55 368.70,-310.02 369.52,-305.08 370.34,-300.13 370.78,-295.37 371.22,-290.60 371.64,-285.81 372.05,-281.01 372.46,-276.32 372.87,-271.63 373.27,-267.33 373.66,-263.03 373.70,-258.09 373.74,-253.14 373.72,-248.42 373.71,-243.70 373.70,-238.80 373.68,-233.91 373.68,-229.00 373.68,-224.09 373.48,-219.58 373.28,-215.06 373.28,-210.64 373.27,-206.23 372.84,-200.19 372.41,-194.16 372.43,-189.85 372.45,-185.54 372.45,-181.12 372.45,-176.70 372.44,-172.12 372.43,-167.53 372.43,-162.74 372.43,-157.94 372.42,-153.18 372.41,-148.42 372.41,-143.64 372.41,-138.85 372.20,-134.31 371.99,-129.76 371.79,-125.51 371.59,-121.26 371.24,-116.90 370.89,-112.54 370.09,-107.06 369.30,-101.58 368.78,-97.22 368.27,-92.86 367.51,-87.99 366.76,-83.11 365.66,-78.60 364.57,-74.09 363.04,-68.13 361.52,-62.17 360.78,-57.77 360.04,-53.38 358.67,-48.50 357.30,-43.62 355.66,-39.32 354.02,-35.01 351.61,-30.40 349.21,-25.79 346.39,-22.59 343.57,-19.39 339.26,-15.27 334.95,-11.15 329.41,-7.48 323.87,-3.80 319.46,-1.75 315.06,0.29 311.09,1.90 307.12,3.51 301.84,4.55 296.56,5.59 291.28,6.44 286.00,7.29 280.85,7.74 275.69,8.19 270.70,8.67 265.72,9.16 259.77,10.00 253.82,10.83 247.91,11.45 242.00,12.08 236.42,12.68 230.84,13.28 225.55,13.87 220.25,14.46 215.51,14.54 210.76,14.62 206.04,14.63 201.31,14.64 196.89,14.63 192.46,14.63 187.81,14.63 183.16,14.64 177.89,14.63 172.63,14.63 167.77,14.62 162.92,14.61 158.07,14.61 153.21,14.62 148.37,14.62 143.52,14.62 138.13,14.60 132.75,14.58 127.45,14.37 122.16,14.16 117.62,13.91 113.09,13.67 107.94,13.65 102.78,13.62 98.04,13.63 93.31,13.63 88.60,13.65 83.89,13.66 79.25,13.68 74.61,13.69 69.70,13.71 64.79,13.73 60.31,13.32 55.83,12.91 51.55,12.93 47.28,12.95 42.32,12.96 37.36,12.96 33.08,12.78 28.80,12.60 22.99,12.42 17.18,12.23 12.41,12.22 7.65,12.21 3.22,12.23 -1.21,12.26 -2.28,12.27 -3.36,12.28 -5.22,12.05 -7.09,11.82 -8.85,11.16 -10.60,10.49 -12.15,9.42 -13.70,8.36 -14.94,6.95 -16.19,5.54 -17.06,3.88 -17.94,2.21 -18.39,0.39 -18.84,-1.43 -18.84,-3.31 -18.84,-5.19 -18.39,-7.01 -17.94,-8.84 -17.06,-10.50 -16.19,-12.16 -14.94,-13.57 -13.70,-14.98 -12.15,-16.05 -10.60,-17.11 -8.85,-17.78 -7.09,-18.45 -5.22,-18.67 -3.36,-18.90 -2.62,-19.03 -1.89,-19.16 0.61,-19.06 3.13,-18.95 5.48,-18.06 7.83,-17.16 9.77,-15.55 11.71,-13.95 13.04,-11.81 14.36,-9.67 14.94,-7.22 15.51,-4.77 15.28,-2.27 15.04,0.23 14.01,2.52 12.99,4.82 11.28,6.67 9.58,8.52 7.37,9.73 5.16,10.94 2.69,11.38 0.21,11.82 -2.27,11.45 -4.76,11.08 -7.00,9.93 -9.24,8.78 -10.99,6.98 -12.75,5.18 -13.84,2.91 -14.92,0.64 -15.23,-1.85 -15.54,-4.35 -15.03,-6.81 -14.52,-9.28 -13.25,-11.45 -11.99,-13.63 -10.09,-15.28 -8.20,-16.94 -5.87,-17.90 -3.55,-18.86 -1.03,-19.03 1.47,-19.20 3.90,-18.56 6.33,-17.92 8.44,-16.54 10.54,-15.16 12.09,-13.17 13.64,-11.19 14.47,-8.82 15.31,-6.44 15.34,-3.93 15.38,-1.41 14.61,0.97 13.84,3.37 12.34,5.39 10.84,7.42 8.78,8.86 6.72,10.30 4.30,11.00 1.89,11.71 1.89,11.71 1.89,11.71 -0.73,11.99 -3.36,12.28 -5.22,12.05 -7.09,11.82 -8.85,11.16 -10.60,10.49 -12.15,9.42 -13.70,8.36 -14.94,6.95 -16.19,5.54 -17.06,3.88 -17.94,2.21 -18.39,0.39 -18.84,-1.43 -18.84,-3.31 -18.84,-5.18 -18.39,-7.01 -17.94,-8.83 -17.06,-10.50 -16.19,-12.16 -14.94,-13.57 -13.70,-14.98 -12.15,-16.04 -10.60,-17.11 -8.85,-17.78 -7.09,-18.45 -5.22,-18.67 -3.36,-18.90 -1.08,-18.88 1.20,-18.87 5.54,-18.84 9.89,-18.82 14.15,-18.75 18.41,-18.68 23.22,-18.50 28.04,-18.32 32.70,-18.12 37.36,-17.93 42.33,-17.93 47.30,-17.92 51.76,-17.87 56.23,-17.82 60.51,-17.43 64.79,-17.05 69.70,-17.03 74.61,-17.01 79.25,-17.00 83.89,-16.98 88.60,-16.97 93.31,-16.95 98.05,-16.94 102.80,-16.94 108.22,-16.93 113.64,-16.91 118.34,-16.71 123.05,-16.50 127.90,-16.37 132.75,-16.25 137.01,-16.27 141.28,-16.29 146.33,-16.29 151.39,-16.29 156.21,-16.28 161.03,-16.28 165.61,-16.28 170.19,-16.29 175.54,-16.30 180.89,-16.30 185.62,-16.30 190.36,-16.29 194.75,-16.30 199.15,-16.30 204.14,-16.30 209.12,-16.30 213.77,-16.33 218.42,-16.37 223.17,-17.00 227.93,-17.62 232.29,-18.08 236.65,-18.53 241.90,-19.15 247.15,-19.77 251.55,-20.40 255.96,-21.04 261.37,-21.67 266.79,-22.30 271.38,-22.73 275.98,-23.17 280.58,-23.59 285.19,-24.02 291.25,-25.20 297.31,-26.37 301.40,-27.72 305.49,-29.07 310.18,-32.24 314.87,-35.42 318.88,-38.66 322.88,-41.91 324.85,-46.57 326.82,-51.23 328.23,-55.97 329.64,-60.71 330.76,-65.41 331.87,-70.11 333.05,-75.68 334.22,-81.24 335.40,-86.34 336.59,-91.44 337.28,-96.65 337.98,-101.85 338.93,-107.13 339.88,-112.41 340.09,-117.42 340.30,-122.44 340.57,-127.13 340.84,-131.82 340.98,-136.26 341.13,-140.69 341.13,-145.53 341.13,-150.36 341.12,-154.86 341.11,-159.36 341.11,-164.22 341.11,-169.08 341.10,-173.72 341.09,-178.36 341.09,-182.62 341.09,-186.87 341.15,-191.59 341.21,-196.31 341.57,-200.62 341.93,-204.93 341.94,-209.22 341.94,-213.50 342.15,-218.12 342.36,-222.73 342.36,-227.55 342.36,-232.36 342.35,-237.05 342.34,-241.75 342.32,-246.48 342.31,-251.22 342.43,-256.17 342.55,-261.12 342.05,-266.00 341.55,-270.88 341.06,-275.77 340.57,-280.67 340.19,-285.26 339.81,-289.86 339.21,-295.09 338.61,-300.31 337.99,-304.68 337.36,-309.05 336.42,-313.48 335.48,-317.92 334.71,-322.23 333.95,-326.54 332.45,-332.71 330.96,-338.87 326.77,-344.42 322.58,-349.98 319.53,-352.95 316.49,-355.92 312.25,-358.15 308.01,-360.38 302.79,-362.45 297.56,-364.52 292.28,-366.60 287.00,-368.68 282.65,-369.49 278.29,-370.29 273.84,-370.86 269.38,-371.43 264.95,-372.10 260.52,-372.78 256.28,-373.25 252.04,-373.72 247.33,-374.02 242.62,-374.32 238.15,-374.71 233.69,-375.10 229.27,-375.24 224.86,-375.38 220.33,-375.66 215.81,-375.95 210.66,-376.15 205.51,-376.36 200.30,-376.55 195.08,-376.75 190.32,-376.92 185.56,-377.09 181.20,-377.55 176.83,-378.00 172.29,-378.66 167.75,-379.31 162.27,-379.90 156.79,-380.48 151.53,-380.89 146.26,-381.31 141.69,-381.51 137.13,-381.71 132.75,-381.71 128.38,-381.70 123.78,-381.69 119.17,-381.68 114.37,-381.68 109.56,-381.68 105.04,-381.64 100.51,-381.61 95.64,-381.21 90.78,-380.81 86.41,-380.43 82.05,-380.04 76.66,-379.64 71.28,-379.24 67.02,-379.23 62.76,-379.23 57.84,-379.23 52.91,-379.23 48.55,-379.24 44.18,-379.24 39.68,-379.27 35.17,-379.30 30.47,-379.56 25.77,-379.83 20.84,-380.00 15.92,-380.17 10.73,-380.17 5.53,-380.18 0.18,-380.18 -5.17,-380.19 -9.82,-380.26 -14.47,-380.34 -19.83,-380.70 -25.18,-381.06 -30.07,-381.05 -34.97,-381.05 -40.08,-381.01 -45.18,-380.96 -50.47,-380.70 -55.76,-380.45 -61.83,-380.06 -67.91,-379.67 -72.23,-379.42 -76.54,-379.17 -82.11,-378.57 -87.67,-377.97 -91.93,-377.75 -96.19,-377.53 -101.23,-376.88 -106.28,-376.22 -110.53,-375.47 -114.77,-374.72 -120.28,-373.54 -125.78,-372.36 -131.87,-370.83 -137.96,-369.30 -142.18,-368.18 -146.40,-367.06 -150.49,-365.32 -154.58,-363.57 -158.47,-361.06 -162.37,-358.55 -165.63,-354.89 -168.88,-351.24 -171.05,-346.11 -173.21,-340.98 -174.77,-336.78 -176.33,-332.57 -177.63,-328.34 -178.92,-324.11 -179.82,-319.74 -180.72,-315.38 -181.51,-310.60 -182.30,-305.82 -182.88,-301.60 -183.45,-297.39 -183.97,-292.78 -184.49,-288.17 -185.05,-283.47 -185.60,-278.76 -186.16,-274.35 -186.72,-269.93 -186.71,-264.97 -186.71,-260.00 -186.52,-255.44 -186.33,-250.87 -186.34,-246.33 -186.36,-241.79 -186.36,-236.70 -186.37,-231.61 -186.36,-226.47 -186.36,-221.33 -186.34,-216.90 -186.32,-212.47 -186.43,-206.76 -186.55,-201.05 -186.66,-196.51 -186.77,-191.98 -186.92,-186.53 -187.08,-181.08 -187.07,-176.73 -187.07,-172.38 -187.06,-167.37 -187.06,-162.36 -187.06,-158.01 -187.05,-153.67 -187.04,-148.80 -187.02,-143.93 -187.01,-138.67 -187.00,-133.42 -187.01,-128.73 -187.01,-124.05 -187.00,-119.28 -186.99,-114.51 -186.79,-109.53 -186.58,-104.55 -186.58,-100.17 -186.58,-95.78 -186.39,-91.07 -186.20,-86.36 -185.52,-80.48 -184.85,-74.60 -183.99,-69.57 -183.12,-64.55 -181.88,-59.41 -180.65,-54.27 -178.04,-50.53 -175.43,-46.78 -172.15,-43.48 -168.88,-40.17 -165.26,-37.18 -161.65,-34.19 -157.33,-32.40 -153.00,-30.61 -148.32,-29.32 -143.63,-28.03 -138.75,-26.97 -133.88,-25.92 -129.14,-25.25 -124.40,-24.58 -118.14,-23.52 -111.88,-22.45 -107.19,-21.97 -102.49,-21.49 -97.47,-21.02 -92.44,-20.54 -87.56,-20.26 -82.67,-19.98 -78.19,-19.87 -73.72,-19.76 -69.46,-19.66 -65.21,-19.56 -60.26,-19.40 -55.31,-19.25 -50.90,-19.09 -46.50,-18.93 -41.42,-18.29 -36.34,-17.66 -31.86,-17.40 -27.38,-17.13 -22.12,-16.73 -16.85,-16.32 -11.53,-15.60 -6.22,-14.87 -2.75,-14.47 0.70,-14.07 1.93,-13.84 3.16,-13.60 4.30,-13.08 5.43,-12.56 6.41,-11.78 7.39,-11.00 8.16,-10.01 8.92,-9.02 9.42,-7.87 9.93,-6.73 10.14,-5.50 10.36,-4.26 10.28,-3.02 10.19,-1.77 9.81,-0.58 9.43,0.61 8.77,1.67 8.12,2.74 7.22,3.61 6.33,4.49 5.26,5.13 4.18,5.77 2.98,6.13 1.79,6.50 0.54,6.56 -0.70,6.63 -0.70,6.63 L -0.70,6.63 Z"></path></g><g transform="translate(292.4864247855239 216.19400941715048) rotate(0 73.88119774912866 87.37254690331781)" stroke="none"><path fill="#593a0e" d="M 10.16,-0.33 Q 10.16,-0.33 10.44,2.42 10.72,5.18 11.53,10.17 12.34,15.16 12.79,19.44 13.23,23.72 13.74,28.03 14.24,32.35 14.64,36.64 15.04,40.93 14.95,46.01 14.87,51.08 14.68,55.94 14.50,60.81 14.46,65.33 14.43,69.86 14.24,74.66 14.05,79.46 13.81,83.94 13.56,88.41 12.99,93.52 12.42,98.63 11.85,104.14 11.28,109.65 10.70,114.06 10.12,118.47 9.70,123.93 9.28,129.40 9.27,134.54 9.26,139.67 9.12,144.50 8.99,149.33 9.02,153.79 9.05,158.25 9.24,163.43 9.44,168.61 2.83,165.18 -3.77,161.75 -1.48,158.11 0.79,154.48 4.67,151.84 8.54,149.21 12.88,146.78 17.22,144.35 21.44,141.60 25.66,138.84 29.54,136.83 33.42,134.82 37.55,132.77 41.68,130.71 46.67,128.11 51.65,125.51 55.92,122.99 60.19,120.47 65.11,117.76 70.03,115.06 73.92,112.95 77.81,110.85 81.78,108.79 85.74,106.73 89.71,104.60 93.67,102.46 97.98,100.26 102.30,98.06 106.26,96.02 110.23,93.98 114.01,91.88 117.79,89.78 121.69,87.74 125.59,85.69 129.67,83.55 133.74,81.40 138.37,79.13 143.00,76.85 141.64,82.01 140.28,87.17 141.68,92.47 143.07,97.77 147.24,100.68 151.40,103.59 147.24,102.50 143.09,101.41 139.15,99.60 135.21,97.78 130.05,94.39 124.90,91.00 121.24,88.43 117.58,85.86 113.61,83.19 109.64,80.51 104.43,77.65 99.21,74.79 95.25,72.72 91.28,70.64 86.22,68.09 81.17,65.54 76.78,63.42 72.40,61.29 68.27,59.49 64.15,57.70 60.12,55.60 56.09,53.50 51.08,50.89 46.06,48.27 42.20,46.33 38.34,44.38 34.59,42.28 30.83,40.18 25.62,37.32 20.41,34.47 15.67,31.72 10.93,28.96 7.02,26.68 3.12,24.40 -0.93,21.44 -4.99,18.48 -8.54,14.74 -12.08,11.00 -12.09,10.45 -12.10,9.89 -13.11,8.30 -14.12,6.71 -14.71,4.92 -15.31,3.13 -15.47,1.25 -15.62,-0.61 -15.32,-2.48 -15.02,-4.34 -14.28,-6.07 -13.54,-7.80 -12.41,-9.31 -11.28,-10.82 -9.82,-12.01 -8.36,-13.21 -6.66,-14.01 -4.96,-14.82 -3.11,-15.20 -1.26,-15.58 0.61,-15.50 2.49,-15.43 4.30,-14.91 6.12,-14.38 7.75,-13.44 9.38,-12.50 10.74,-11.20 12.10,-9.89 6.60,-12.74 1.10,-15.59 3.56,-15.01 6.02,-14.42 8.17,-13.08 10.31,-11.74 11.92,-9.79 13.52,-7.83 14.42,-5.47 15.32,-3.10 15.41,-0.57 15.51,1.94 14.79,4.37 14.07,6.80 12.62,8.87 11.17,10.94 9.13,12.43 7.09,13.93 4.68,14.70 2.27,15.46 -0.25,15.42 -2.78,15.38 -5.17,14.53 -7.55,13.69 -9.54,12.12 -11.52,10.56 -12.91,8.44 -14.29,6.32 -14.93,3.87 -15.57,1.42 -15.39,-1.09 -15.21,-3.61 -14.23,-5.95 -13.26,-8.28 -11.59,-10.18 -9.92,-12.08 -7.73,-13.35 -5.54,-14.62 -3.06,-15.12 -0.58,-15.62 1.92,-15.30 4.43,-14.99 6.71,-13.89 8.99,-12.79 10.79,-11.02 12.60,-9.25 13.75,-6.99 14.89,-4.74 15.26,-2.23 15.63,0.26 15.18,2.75 14.73,5.24 13.50,7.45 12.28,9.67 10.42,11.37 8.55,13.08 6.24,14.11 3.92,15.13 -4.08,12.51 -12.10,9.89 -13.11,8.30 -14.12,6.71 -14.71,4.92 -15.31,3.13 -15.47,1.26 -15.62,-0.61 -15.32,-2.47 -15.02,-4.33 -14.28,-6.07 -13.54,-7.80 -12.41,-9.31 -11.28,-10.82 -9.82,-12.01 -8.36,-13.20 -6.66,-14.01 -4.96,-14.82 -3.11,-15.20 -1.26,-15.58 0.61,-15.50 2.49,-15.43 4.30,-14.91 6.11,-14.38 7.75,-13.44 9.38,-12.50 10.74,-11.20 12.10,-9.89 13.19,-7.90 14.27,-5.91 18.14,-3.10 22.01,-0.28 25.89,1.77 29.76,3.83 34.84,6.75 39.91,9.67 43.77,11.95 47.64,14.24 52.80,17.02 57.97,19.80 63.19,22.40 68.42,25.00 72.20,26.96 75.98,28.92 79.89,30.80 83.80,32.68 88.55,34.77 93.30,36.85 97.28,38.82 101.25,40.79 105.28,42.93 109.32,45.08 113.57,47.15 117.83,49.22 121.82,51.52 125.81,53.83 129.48,56.25 133.16,58.66 136.93,61.47 140.70,64.27 144.53,66.91 148.36,69.54 152.80,71.30 157.25,73.05 160.72,75.85 164.19,78.65 165.71,84.22 167.23,89.79 162.42,96.97 157.61,104.15 153.61,105.96 149.61,107.77 144.65,110.48 139.68,113.19 135.79,115.20 131.91,117.22 127.52,119.66 123.13,122.10 118.42,124.48 113.72,126.86 108.79,129.45 103.85,132.05 99.90,134.14 95.95,136.23 91.49,138.47 87.04,140.70 82.26,143.35 77.48,145.99 73.19,148.42 68.90,150.85 64.79,153.14 60.68,155.43 56.10,157.96 51.51,160.48 47.57,162.20 43.64,163.92 39.80,166.55 35.96,169.17 31.66,171.57 27.37,173.96 23.35,176.21 19.34,178.46 15.58,180.83 11.83,183.21 7.22,185.66 2.60,188.10 -2.11,187.72 -6.83,187.34 -13.50,182.83 -20.18,178.32 -20.58,173.62 -20.99,168.91 -21.13,164.35 -21.27,159.79 -21.23,155.35 -21.19,150.92 -21.08,145.94 -20.97,140.95 -20.86,136.68 -20.75,132.40 -20.49,127.45 -20.23,122.49 -19.69,117.60 -19.16,112.71 -18.34,108.29 -17.51,103.87 -16.91,98.57 -16.31,93.27 -15.64,88.72 -14.97,84.17 -14.59,79.91 -14.20,75.65 -13.92,71.28 -13.64,66.90 -13.31,61.42 -12.99,55.94 -12.18,50.48 -11.37,45.02 -11.10,40.46 -10.83,35.90 -10.88,30.88 -10.94,25.85 -10.70,20.73 -10.46,15.60 -10.41,10.75 -10.35,5.89 -10.25,3.11 -10.16,0.33 -10.05,-0.88 -9.95,-2.10 -9.55,-3.26 -9.15,-4.42 -8.49,-5.45 -7.83,-6.48 -6.94,-7.33 -6.05,-8.17 -4.98,-8.77 -3.92,-9.38 -2.74,-9.71 -1.56,-10.05 -0.33,-10.09 0.88,-10.13 2.08,-9.87 3.28,-9.62 4.39,-9.09 5.49,-8.55 6.44,-7.77 7.38,-6.99 8.11,-6.00 8.84,-5.02 9.31,-3.89 9.78,-2.76 9.97,-1.54 10.16,-0.33 10.16,-0.33 L 10.16,-0.33 Z"></path></g><g transform="translate(178.8994612582119 499.48627250068853) rotate(0 47.18439450097594 -0.2640917602667514)" stroke="none"><path fill="#593a0e" d="M 0.12,-10.16 Q 0.12,-10.16 4.17,-10.25 8.22,-10.35 13.11,-10.71 18.00,-11.07 22.63,-11.46 27.25,-11.85 32.22,-12.18 37.18,-12.51 42.24,-12.78 47.31,-13.04 51.85,-13.15 56.40,-13.25 60.86,-13.43 65.33,-13.61 70.13,-13.93 74.93,-14.25 79.29,-14.40 83.66,-14.55 88.62,-15.03 93.58,-15.50 95.94,-15.24 98.29,-14.98 100.44,-13.99 102.59,-12.99 104.31,-11.36 106.03,-9.73 107.14,-7.64 108.24,-5.54 108.63,-3.20 109.01,-0.87 108.62,1.46 108.24,3.80 107.13,5.89 106.02,7.98 104.29,9.61 102.57,11.24 100.42,12.23 98.27,13.23 95.92,13.48 93.56,13.74 91.25,13.23 88.93,12.72 86.90,11.49 84.88,10.27 83.34,8.46 81.81,6.66 80.93,4.45 80.06,2.25 79.93,-0.10 79.81,-2.47 80.44,-4.75 81.08,-7.03 82.41,-8.99 83.74,-10.95 85.63,-12.39 87.51,-13.82 89.76,-14.57 92.01,-15.33 94.38,-15.33 96.74,-15.32 98.99,-14.57 101.23,-13.81 103.12,-12.37 105.00,-10.94 106.33,-8.98 107.66,-7.01 108.29,-4.73 108.92,-2.45 108.79,-0.08 108.66,2.28 107.78,4.48 106.91,6.68 105.37,8.48 103.83,10.28 101.80,11.50 99.77,12.72 97.46,13.23 95.14,13.74 95.15,13.74 95.15,13.74 90.41,14.04 85.67,14.35 80.36,14.31 75.06,14.26 70.20,14.29 65.33,14.31 60.79,14.13 56.25,13.95 51.78,13.67 47.31,13.39 42.24,13.13 37.18,12.86 32.22,12.53 27.25,12.20 22.59,11.81 17.93,11.41 12.95,10.98 7.96,10.55 3.92,10.35 -0.12,10.16 -1.34,9.99 -2.55,9.83 -3.69,9.38 -4.83,8.93 -5.83,8.22 -6.83,7.52 -7.63,6.59 -8.43,5.66 -8.99,4.57 -9.54,3.48 -9.82,2.29 -10.10,1.09 -10.08,-0.12 -10.07,-1.35 -9.76,-2.53 -9.45,-3.72 -8.87,-4.79 -8.28,-5.87 -7.46,-6.78 -6.64,-7.69 -5.62,-8.37 -4.60,-9.05 -3.45,-9.47 -2.30,-9.89 -1.08,-10.02 0.12,-10.16 0.12,-10.16 L 0.12,-10.16 Z"></path></g><g transform="translate(276.70404544300254 493.21217614948864) rotate(0 -28.840884838346938 1.1015615736868085)" stroke="none"><path fill="#593a0e" d="M -0.26,9.78 Q -0.26,9.78 -2.40,9.91 -4.53,10.05 -8.93,10.50 -13.32,10.94 -17.83,11.87 -22.33,12.79 -27.03,13.55 -31.72,14.30 -36.12,14.95 -40.51,15.61 -45.08,15.84 -49.65,16.07 -53.66,16.17 -57.68,16.27 -59.89,15.91 -62.11,15.55 -64.09,14.50 -66.07,13.44 -67.62,11.81 -69.16,10.19 -70.10,8.15 -71.05,6.11 -71.29,3.88 -71.53,1.65 -71.05,-0.54 -70.57,-2.73 -69.41,-4.65 -68.25,-6.58 -66.54,-8.03 -64.83,-9.48 -62.74,-10.31 -60.66,-11.14 -58.42,-11.26 -56.18,-11.39 -54.01,-10.79 -51.85,-10.18 -49.99,-8.92 -48.13,-7.66 -46.77,-5.88 -45.42,-4.09 -44.70,-1.96 -43.98,0.16 -43.98,2.40 -43.98,4.65 -44.70,6.77 -45.42,8.90 -46.78,10.69 -48.14,12.47 -49.99,13.73 -51.85,14.99 -54.02,15.59 -56.18,16.19 -58.42,16.07 -60.66,15.95 -62.75,15.12 -64.83,14.29 -66.54,12.83 -68.25,11.38 -69.41,9.46 -70.57,7.53 -71.05,5.34 -71.53,3.15 -71.29,0.91 -71.05,-1.31 -70.10,-3.34 -69.16,-5.38 -67.62,-7.01 -66.07,-8.64 -64.09,-9.69 -62.10,-10.74 -59.89,-11.11 -57.67,-11.47 -57.67,-11.47 -57.68,-11.47 -53.11,-11.34 -48.54,-11.22 -44.12,-10.97 -39.71,-10.73 -35.25,-10.90 -30.79,-11.07 -26.41,-11.11 -22.02,-11.16 -17.67,-11.25 -13.32,-11.34 -8.65,-10.81 -3.98,-10.28 -1.86,-10.03 0.26,-9.78 1.43,-9.60 2.59,-9.43 3.68,-8.98 4.78,-8.53 5.73,-7.84 6.68,-7.14 7.44,-6.24 8.20,-5.33 8.72,-4.28 9.24,-3.22 9.49,-2.06 9.74,-0.91 9.71,0.26 9.67,1.44 9.36,2.57 9.05,3.71 8.47,4.74 7.90,5.77 7.09,6.63 6.28,7.49 5.30,8.14 4.31,8.78 3.19,9.17 2.08,9.56 0.90,9.67 -0.26,9.78 -0.26,9.78 L -0.26,9.78 Z"></path></g></svg>